<svg xmlns="http://www.w3.org/2000/svg" viewBox="0 0 32 32"><defs><style>.a{fill:#fff;}</style></defs><path class="a" d="M22.24,14a.55.55,0,0,1,.16.38.51.51,0,0,1-.16.37.52.52,0,0,1-.37.16.55.55,0,0,1-.38-.16.51.51,0,0,1-.16-.37.54.54,0,0,1,.91-.38Zm-2.51,2.5A3.73,3.73,0,1,1,16,12.8,3.73,3.73,0,0,1,19.73,16.53Zm-2.13,0a1.6,1.6,0,1,0-1.6,1.6A1.6,1.6,0,0,0,17.6,16.53ZM32,0V32H0V0ZM24,13.07a.8.8,0,0,0-.8-.8H19.88l-1.75-2.14H13.87l-1.75,2.14H8.8a.8.8,0,0,0-.8.8v8a.8.8,0,0,0,.8.8H23.2a.8.8,0,0,0,.8-.8Z"/></svg>