<?xml version="1.0" encoding="UTF-8"?><svg id="Layer_1" xmlns="http://www.w3.org/2000/svg" viewBox="0 0 40 40"><defs><style>.cls-1{fill:#fff;stroke-width:0px;}</style></defs><path class="cls-1" d="M17.13,7.6c-.2,0-5.92-2.89-5.92-3,0-.04,1.95-1.09,4.33-2.33C17.93,1.02,19.92,0,19.97,0c.05,0,.35.14.66.31.31.17,1.94,1.04,3.61,1.92,3.46,1.82,4.74,2.51,4.82,2.59.06.06-.31.23-3.87,1.83l-2.36,1.06-1.44-.74-1.44-.74-1.32.68c-.73.37-1.4.68-1.49.68ZM12.5,30.2c-.38-.2-1.17-.64-1.75-.99-.58-.34-1.16-.66-1.29-.7-.13-.04-.23-.11-.23-.16,0-.05,1.36-.69,3.01-1.43,3.21-1.44,5.67-2.54,10.94-4.93,2.36-1.07,4.72-2.13,7.08-3.2,2.07-.94,4.48-2.03,5.36-2.43l1.59-.73.04-3.35.04-3.35-2.25-1.15c-1.24-.64-2.3-1.15-2.35-1.15-.06,0-1.48.63-3.17,1.39-1.69.76-3.07,1.42-3.07,1.45,0,.04.92.58,2.05,1.22,1.13.63,2.05,1.18,2.05,1.22s-1,.52-2.22,1.07c-1.22.55-4.3,1.94-6.85,3.09l-8.53,3.86c-2.15.97-4.08,1.84-4.3,1.94-4.38,1.98-5.59,2.54-5.75,2.63-.17.1-.2.65-.23,3.42l-.04,3.31,2.22,1.13,2.22,1.13,3.08-1.39c1.69-.76,3.08-1.43,3.08-1.48s-.31-.25-.69-.45ZM5.4,19.03l2.64-1.18v-5.93l1.29.7c.99.54,1.99,1.08,2.98,1.62l1.69.92.75-.34c.47-.21.94-.43,1.42-.65.36-.17,1.26-.57,1.98-.89.73-.32,1.4-.65,1.5-.72.13-.1-1.42-.95-5.72-3.16-3.24-1.67-6-3.02-6.13-3.02s-1.35.59-2.71,1.29l-2.48,1.28v5.62c0,3.09.03,5.62.07,5.62s1.26-.53,2.71-1.18ZM23.58,32.59l-1.06.46c-.44.19-.88.38-1.32.57-1.33.58-1.07.6-2.65-.19-1.05-.53-1.51-.69-1.71-.61-.15.06-1.42.63-2.83,1.27-1.41.64-2.61,1.17-2.67,1.17-.59,0,.39.59,4.19,2.5l4.45,2.24,1.87-.92c1.03-.51,3.11-1.53,4.61-2.26,1.51-.74,2.72-1.36,2.7-1.38-.02-.02-1.29-.67-2.81-1.44l-2.77-1.4ZM37.3,19.81s-.36.14-.69.31c-.33.16-.99.47-1.46.67-.47.21-1.36.61-1.98.89l-1.12.51-.03,2.94c-.01,1.62-.07,2.93-.13,2.92-.13-.02-2.24-1.1-4.36-2.24-1.53-.82-1.63-.85-1.98-.67-.21.1-1.45.66-2.76,1.24-1.31.58-2.42,1.09-2.48,1.13-.05.05,2.58,1.47,5.86,3.17l5.95,3.09,2.54-1.32c1.4-.72,2.59-1.38,2.64-1.47.12-.19.11-11.21-.01-11.19Z"/></svg>