<?xml version="1.0" encoding="UTF-8"?><svg id="Layer_1" xmlns="http://www.w3.org/2000/svg" viewBox="0 0 40 40"><defs><style>.cls-1{fill:#fff;fill-rule:evenodd;stroke-width:0px;}</style></defs><path class="cls-1" d="M14.72,21.46l1.62-.94c.32-.12.53-.44.51-.78-.15-3.14.7-4.53,1.85-5.41.41-.31.86-.47,1.3-.47s.89.16,1.3.47c1.14.87,1.99,2.26,1.85,5.41-.02.34.19.66.51.78l1.62.94c-3.31,1.86-4.21,5.3-5.28,8.66-1.07-3.36-1.97-6.8-5.28-8.66ZM17.73,12.51s0,0,0,0c.7-.53,1.48-.8,2.27-.8s1.57.27,2.27.8c0,0,0,0,0,0,3.89-1.82,9.51-6.59,10.74-10.63-.72,1.1-2.26,2.27-3.31,2.23-.39-.39-.75-.73-1.18-1.08-.95-.78-2.01-1.42-3.14-1.91-1.63-.71-3.51-1.07-5.39-1.12-1.87.05-3.75.41-5.39,1.12-1.13.49-2.18,1.14-3.14,1.91-.43.35-.79.69-1.18,1.08-1.05.04-2.6-1.13-3.31-2.23,1.23,4.04,6.85,8.8,10.74,10.63ZM12.01,13.29c.12.34.35.63.64.87.32.25.73.44,1.17.54.84.19,1.83.08,2.73-.43-1.23-.61-2.78-1.51-4.34-2.74-.33.68-.37,1.28-.2,1.76ZM26.17,14.69c.45-.1.85-.28,1.17-.54.3-.23.52-.53.64-.87.17-.48.13-1.08-.2-1.76-1.56,1.23-3.12,2.13-4.35,2.74.9.51,1.88.62,2.73.43ZM33.57,19.5l-.02-1.84v-3.54c0-2.23-.52-4.22-1.51-6.21l-.31-.58c-.61.86-1.37,1.82-2.23,2.68h0s.27.56.27.56c.52,1.08.69,2.29.29,3.44-.26.74-.74,1.38-1.36,1.86-.6.47-1.31.79-2.05.96-.48.11-.97.15-1.46.14.11.65.16,1.32.17,2l4.36,2.52-3.37,1.89c-.27.15-.53.32-.77.52-2.77,2.49-4.44,9.86-5.59,13.46-1.15-3.6-2.81-10.97-5.59-13.46-.24-.19-.5-.37-.77-.52l-3.37-1.89,4.36-2.52c0-.68.05-1.35.17-2-.49.02-.98-.03-1.46-.14-.74-.17-1.45-.48-2.05-.96-.62-.49-1.09-1.12-1.36-1.86-.41-1.15-.23-2.36.29-3.44l.27-.56c-.86-.87-1.62-1.83-2.23-2.68l-.31.58c-1,1.99-1.51,3.97-1.51,6.21v3.54s-.02,1.84-.02,1.84c-.07,4.51-1.05,9.07-3.26,13.24l4.62-3.73,3.27,5.31,3.44-3.24,5.49,8.91,5.49-8.91,3.44,3.24,3.27-5.31,4.62,3.73c-2.21-4.17-3.18-8.74-3.26-13.24Z"/></svg>