<?xml version="1.0" encoding="UTF-8"?><svg id="katman_1" xmlns="http://www.w3.org/2000/svg" viewBox="0 0 40 40"><defs><style>.cls-1{fill:#fff;stroke-width:0px;}</style></defs><path class="cls-1" d="M27.74,29.62c-3.8-6.18-9.47-9.68-16.48-11.14-2.48-.51-4.97-.51-7.37.44-1.65.65-1.9,1.33-1.12,3.06,5.26-1.25,10.16-.09,14.74,2.56,4.62,2.67,8.06,6.39,9.63,11.67,2.2-.67,2.48-1.04,1.95-3.09-.31-1.2-.71-2.45-1.36-3.51h0Z"/><path class="cls-1" d="M31.91,24.59c-4.89-7.12-11.8-11.1-20.26-12.43-2.24-.35-4.52-.26-6.62.81-1,.51-1.89,1.17-2.13,2.56,6.59-1.82,12.51-.21,18.08,3.02,5.6,3.25,9.97,7.6,11.67,14.3,1.18-1.05,1.39-2.33,1.09-3.53-.42-1.64-.9-3.37-1.83-4.73h0Z"/><path class="cls-1" d="M3.2,25.04c.42.92.69,1.96,1.31,2.71.31.38,1.26.23,1.92.32.1.01.2.03.31.04,5.86.87,10.48,3.71,13.78,8.65.19.29.51.72.76.72.99,0,1.99-.16,2.99-.26-1.49-8.27-13.8-15.06-21.08-12.2h0Z"/><path class="cls-1" d="M34.61,18.1c-3.23-4.52-7.68-7.52-12.74-9.66-3.5-1.49-7.13-2.38-10.98-1.92-1.33.16-2.58.54-3.61,1.41,13.15.33,23.04,6.02,29.84,17.27.01-.75.13-1.58-.15-2.25-.68-1.67-1.33-3.4-2.36-4.85Z"/><path class="cls-1" d="M37.64,15.75C34.96,5.56,24.09.66,16.05,3.14c8.66,1.71,15.77,5.84,21.59,12.61Z"/><path class="cls-1" d="M6.07,30.47c3.11,3.95,7.06,6.25,12.13,6.99-1.94-3.62-8.76-7.53-12.13-6.99h0Z"/></svg>