<?xml version="1.0" encoding="UTF-8"?><svg id="Layer_1" xmlns="http://www.w3.org/2000/svg" viewBox="0 0 40 40"><defs><style>.cls-1{fill:#fff;stroke-width:0px;}</style></defs><circle class="cls-1" cx="20" cy="20" r="8"/><path class="cls-1" d="M25.13,31.85c-1.57.68-3.31,1.07-5.13,1.07-7.13,0-12.91-5.78-12.91-12.91s5.78-12.91,12.91-12.91,12.91,5.78,12.91,12.91c0,2.81-.91,5.41-2.44,7.53l5.03,5.09c2.81-3.44,4.5-7.84,4.5-12.63C40,8.95,31.05,0,20,0S0,8.95,0,20s8.95,20,20,20c3.78,0,7.31-1.07,10.32-2.89l-5.19-5.26Z"/></svg>