<?xml version="1.0" encoding="UTF-8"?><svg id="Layer_1" xmlns="http://www.w3.org/2000/svg" viewBox="0 0 40 40"><defs><style>.cls-1{fill:#fff;fill-rule:evenodd;stroke-width:0px;}</style></defs><path class="cls-1" d="M38.38,7.4c-.51,5.36-2.71,18.38-3.84,24.36-.48,2.54-1.41,3.39-2.31,3.47-1.98.17-3.47-1.3-5.36-2.54-2.99-1.95-4.66-3.16-7.57-5.08-3.36-2.2-1.19-3.42.73-5.39.51-.51,9.17-8.41,9.34-9.12.03-.08.03-.42-.17-.59-.2-.17-.48-.11-.71-.06-.31.06-5.05,3.22-14.28,9.46-1.36.93-2.57,1.38-3.67,1.36-1.21-.03-3.53-.68-5.28-1.24-2.12-.68-3.81-1.04-3.67-2.23.08-.62.93-1.24,2.51-1.89,9.88-4.29,16.46-7.14,19.76-8.53,9.4-3.92,11.38-4.6,12.65-4.63.28,0,.9.06,1.33.4.34.28.42.65.48.93.06.28.11.88.06,1.33Z"/></svg>