<?xml version="1.0" encoding="UTF-8"?><svg id="Artwork" xmlns="http://www.w3.org/2000/svg" xmlns:xlink="http://www.w3.org/1999/xlink" viewBox="0 0 860 499.68"><defs><style>.cls-1{fill:url(#New_Gradient_Swatch_1);}.cls-1,.cls-2,.cls-3,.cls-4,.cls-5,.cls-6,.cls-7{stroke-width:0px;}.cls-2{fill:url(#New_Gradient_Swatch_1-4);}.cls-3{fill:url(#New_Gradient_Swatch_1-3);}.cls-4{fill:url(#New_Gradient_Swatch_1-2);}.cls-8{fill:url(#New_Gradient_Swatch_1-10);}.cls-8,.cls-9,.cls-10,.cls-11,.cls-12,.cls-13,.cls-14,.cls-15,.cls-16,.cls-17,.cls-18,.cls-19,.cls-20,.cls-21{stroke-width:4px;}.cls-8,.cls-9,.cls-10,.cls-11,.cls-12,.cls-13,.cls-14,.cls-15,.cls-16,.cls-17,.cls-18,.cls-19,.cls-20,.cls-21,.cls-22,.cls-23{stroke:#000;stroke-miterlimit:10;}.cls-9{fill:url(#New_Gradient_Swatch_1-15);}.cls-10{fill:url(#New_Gradient_Swatch_1-11);}.cls-11{fill:url(#New_Gradient_Swatch_1-12);}.cls-12{fill:url(#New_Gradient_Swatch_1-17);}.cls-13{fill:url(#New_Gradient_Swatch_1-19);}.cls-14{fill:url(#New_Gradient_Swatch_1-14);}.cls-15{fill:url(#New_Gradient_Swatch_1-16);}.cls-16{fill:url(#New_Gradient_Swatch_1-18);}.cls-17{fill:url(#New_Gradient_Swatch_1-13);}.cls-18{fill:url(#New_Gradient_Swatch_1-9);}.cls-19{fill:url(#New_Gradient_Swatch_1-6);}.cls-20{fill:url(#New_Gradient_Swatch_1-8);}.cls-21{fill:url(#New_Gradient_Swatch_1-7);}.cls-5{fill:#000;}.cls-22{fill:none;stroke-width:8px;}.cls-6{fill:#c7c7c7;}.cls-7{fill:#ededed;}.cls-23{fill:url(#New_Gradient_Swatch_1-5);stroke-width:7.58px;}</style><linearGradient id="New_Gradient_Swatch_1" x1="-19.69" y1="295.29" x2="226.32" y2="49.29" gradientUnits="userSpaceOnUse"><stop offset="0" stop-color="#db23ff"/><stop offset="1" stop-color="#0ff2aa"/></linearGradient><linearGradient id="New_Gradient_Swatch_1-2" x1="188.41" y1="288.16" x2="422.5" y2="54.07" xlink:href="#New_Gradient_Swatch_1"/><linearGradient id="New_Gradient_Swatch_1-3" x1="400.41" y1="273.62" x2="632.97" y2="41.06" xlink:href="#New_Gradient_Swatch_1"/><linearGradient id="New_Gradient_Swatch_1-4" x1="617.32" y1="292.21" x2="857.29" y2="52.24" xlink:href="#New_Gradient_Swatch_1"/><linearGradient id="New_Gradient_Swatch_1-5" x1="602.96" y1="252.86" x2="677.17" y2="252.86" gradientTransform="translate(111.41 339.85) rotate(-23.43)" xlink:href="#New_Gradient_Swatch_1"/><linearGradient id="New_Gradient_Swatch_1-6" x1="17.52" y1="433.37" x2="813.03" y2="350.2" xlink:href="#New_Gradient_Swatch_1"/><linearGradient id="New_Gradient_Swatch_1-7" x1="18.27" y1="440.56" x2="813.78" y2="357.38" xlink:href="#New_Gradient_Swatch_1"/><linearGradient id="New_Gradient_Swatch_1-8" x1="18.97" y1="447.23" x2="814.48" y2="364.05" xlink:href="#New_Gradient_Swatch_1"/><linearGradient id="New_Gradient_Swatch_1-9" x1="19.89" y1="456.05" x2="815.4" y2="372.88" xlink:href="#New_Gradient_Swatch_1"/><linearGradient id="New_Gradient_Swatch_1-10" x1="20.52" y1="462.07" x2="816.03" y2="378.89" xlink:href="#New_Gradient_Swatch_1"/><linearGradient id="New_Gradient_Swatch_1-11" x1="21.05" y1="467.16" x2="816.56" y2="383.98" xlink:href="#New_Gradient_Swatch_1"/><linearGradient id="New_Gradient_Swatch_1-12" x1="21.98" y1="476.05" x2="817.49" y2="392.87" xlink:href="#New_Gradient_Swatch_1"/><linearGradient id="New_Gradient_Swatch_1-13" x1="22.45" y1="480.56" x2="817.96" y2="397.38" xlink:href="#New_Gradient_Swatch_1"/><linearGradient id="New_Gradient_Swatch_1-14" x1="22.99" y1="485.75" x2="818.51" y2="402.58" xlink:href="#New_Gradient_Swatch_1"/><linearGradient id="New_Gradient_Swatch_1-15" x1="23.58" y1="491.36" x2="819.09" y2="408.18" xlink:href="#New_Gradient_Swatch_1"/><linearGradient id="New_Gradient_Swatch_1-16" x1="24.08" y1="496.13" x2="819.59" y2="412.96" xlink:href="#New_Gradient_Swatch_1"/><linearGradient id="New_Gradient_Swatch_1-17" x1="24.55" y1="500.64" x2="820.06" y2="417.46" xlink:href="#New_Gradient_Swatch_1"/><linearGradient id="New_Gradient_Swatch_1-18" x1="25.21" y1="506.99" x2="820.73" y2="423.81" xlink:href="#New_Gradient_Swatch_1"/><linearGradient id="New_Gradient_Swatch_1-19" x1="25.67" y1="511.32" x2="821.18" y2="428.14" xlink:href="#New_Gradient_Swatch_1"/></defs><path class="cls-5" d="M36.87,32.06h.44c3.93,0,6.56.44,10.05.44h2.62c8.3-.44,14.86-1.31,23.16-1.75,15.73-.87,24.47-.87,40.21-1.31,8.74-.44,17.04-.87,25.35-.87,19.23,0,37.58,1.31,61.18,1.31h3.93c3.5.44,5.24,2.62,5.24,5.68,0,30.59,1.75,65.99,1.75,96.58,0,4.37.44,8.74.87,13.11v4.37c0,2.19-.87,2.19-4.81,5.24-1.31.87-2.18,1.31-3.06,1.75-12.92,6.46-20.87,20.88-29.33,31.84-12.15,15.72-26.8,28.82-39.65,43.81-2.62,3.06-3.93,6.56-5.24,10.05,0,.87-.44,1.31-.44,1.75,0,1.75,1.31,3.06,3.06,3.93,2.19.87,4.37,1.75,6.99,1.75,10.93,1.75,24.91,1.75,38.46,1.75,11.36,0,16.54-1.31,27.03-2.19,4.37,0,6.99,2.62,7.43,6.99,0,2.19-.44,4.81-.44,6.99-.87,8.3-1.31,3.01-2.19,11.31-.44,6.12-.87,12.24-.87,18.36-.44,9.18-.87,18.35-.87,27.53v5.68c0,3.5.87,12.67.87,16.61,0,2.62-1.31,4.37-2.62,6.12-1.31,1.31-2.62,1.75-4.81,2.19h-2.19c-31.03,0-47.2-.44-78.23-.44-3.5,0-5.24.44-8.74.44-4.81.44-6.99.44-11.8.87-2.62,0-4.37.44-6.99.44h-.44c-10.49,0-17.48-.87-27.1-.87-3.93,0-7.43,0-11.36.44h-1.31c-5.24-.44-8.74-1.31-13.55-1.75-1.31,0-2.62-.44-3.93-.87-2.62,0-4.37-1.31-4.37-3.93v-.87c.44-4.37.87-9.18.87-13.55.44-4.37.44-8.3.87-12.67.87-13.55,1.75-27.53,2.62-41.08.44-5.68.44-11.36.87-17.04,0-4.37.44-8.74.87-13.11.44-3.06,1.75-5.68,4.38-7.87,15.62-10.94,26.29-30.45,39.41-44.26,14.19-14.94,27.33-31.05,39.3-47.81,2.19-3.06,3.06-6.12,3.93-9.18v-1.75c0-2.62-.87-4.81-3.06-6.12-3.06-1.75-6.12-3.5-9.61-3.93-6.56-.87-12.67-1.75-18.79-2.19-3.5-.44-6.99-.44-10.49-.44l-17.04.87c-6.99.44-6.61.44-14.04,2.62-1.75.44-4.37,0-6.56.44h-1.31c-3.06,0-6.12-2.19-8.3-3.93-1.31-1.31-1.75-3.5-1.75-5.24-.44-3.06,0-6.12-.44-9.18,0-28.84-1.31-42.09-1.31-70.06,0-2.19.44-4.81,1.31-5.68s2.62-1.31,3.93-1.31Z"/><path class="cls-5" d="M391.74,221.79c-6.56.44-12.24.87-18.79.87h-5.24c-10.49,0-18.79-.44-29.28-.44,0,0-3.06,20.04-3.06,33.59,0,1.31,3.06,1.31,4.37,1.75,6.12,1.31,12.24,1.75,18.79,1.75,11.36,0,24.91-1.31,35.4-1.31h.87c3.93,0,7.43,0,7.43,6.56,0,22.73.44,45.89.44,68.18v9.61c0,5.24-7.43,5.68-13.11,5.68h-3.06c-34.09,0-65.99,1.31-101.83,1.31-6.56,0-13.11,0-19.67.44h-11.36c-1.31,0-3.06,0-4.37-.44-2.62-1.31-4.37-3.5-4.37-6.99v-10.49c.44-9.18.44-18.79.44-27.97,0-63.37-1.75-131.55-1.75-200.16v-27.53c0-9.61.44-19.67.44-29.72v-5.68c0-3.5.44-6.56,1.75-10.05.87-1.31,1.75-2.19,3.5-2.19h.87c9.61,0,17.92.87,29.28.87,7.87,0,12.67.44,20.54.44,14.86.44,22.29,1.75,37.15,1.75,4.81,0,6.99,0,11.8-.44,4.81-.44,7.87-.44,12.67-.87,5.24-.44,13.98-.87,18.79-.87,5.24,0,8.3.44,13.98.44,2.62,0,4.81,1.31,6.56,3.93.44.87.44,1.31.44,2.19v4.81c.44,3.5,0,5.24.44,8.3.44,3.06.87,31.47.87,34.53,0,5.24-1.31,7.43-6.56,8.3-10.49,1.31-26.66,1.31-38.9,1.31h-14.86c-2.62,0-4.81,0-5.68,2.62-1.75,5.24-2.19,12.67-2.19,19.23v24.04c0,2.19,0,3.93.44,5.24s1.75,1.75,3.06,1.75c7.87,0,16.17.44,24.91.44,7.87,0,15.73-.44,23.16-1.31,1.31,0,2.19-.44,3.5-.44h.87c1.31,0,3.06.44,3.93,1.31,2.62,1.75,2.62,4.81,2.62,7.43v10.05c0,16.61-.87,6.99-.87,38.9v15.36c0,1.31,0,2.62-.87,3.5-.87,0-2.62.44-3.5.44Z"/><path class="cls-5" d="M636.9,215.61c0,7.43-.44,15.3-.87,22.73-4.37,55.94-9.62,98.77-55.07,112.75-15.73,5.24-34.96,6.99-56.38,6.99-43.27-1.75-63.37-11.8-74.73-45.89-3.93-11.8-6.99-20.1-9.18-35.4-3.93-21.41-5.68-43.27-6.12-65.99v-13.11c0-42.83,2.18-87.84,2.18-131.98,0-8.74.44-15.73.87-24.04v-.87c0-1.75,0-3.06.87-4.37.88-1.75,2.19-2.62,3.93-2.62h5.24c4.37.44,8.74.44,13.11.44,11.8,0,24.47-.87,35.4-.87,4.81,0,9.18.87,13.11,3.5,1.75,1.31,2.62,4.81,2.62,7.43v3.06c-2.18,41.08-2.62,84.35-2.62,123.24,0,20.54-3.7,65.5,25.35,64.68h2.19c24.22-2.03,18.79-30.59,22.29-45.02,4.37-19.67,5.68-41.08,5.68-62.06,0-27.1-2.18-55.5-2.18-83.04v-.44c0-3.5,1.75-5.68,5.24-5.68,3.5.44,7.87.44,12.24.44,8.3,0,17.48-.44,26.22-.44h3.93c7.43,0,14.42,0,19.67,1.75,3.5,1.75,5.25,1.75,5.25,6.56v1.75c0,46.76,1.75,95.71,1.75,143.78v22.73Z"/><path class="cls-5" d="M785.59,114.16c-5.25,0-10.49.89-15.73,3.11-5.24,2.67-8.11,4.46-9.42,10.68-.44,1.78-.44,3.55-.44,5.33,0,9.91,3.91,20.05,10.98,26.94,6.6,6.43,15.52,8.77,24.12,10.96,10.35,2.64,28.55,8.98,34.87,18.39,19.64,29.28,21.04,77.94,7.01,108.88-2.62,5.78-6.56,10.68-9.62,16.46-.87,2.22-3.06,4-4.81,6.23-4.37,4.89-9.18,9.34-14.86,12.9-.44.44-1.31.89-2.19,1.33-16.61,8.01-33.65,13.79-57.69,16.01-5.24.44-22.32,0-28.43,0h-2.62c-10.93,0-28.84-1.33-37.15-1.33-3.06,0-5.68-1.33-8.3-3.11-2.62-1.78-3.5-4-3.5-7.56.44-12.9.87-23.13.87-34.25,0-14.68.87-19.16.87-32.5,0-6.67-.44-13.79-.87-20.91v-1.78c0-3.11.87-4,3.93-4.89,1.75-.44,3.5-.44,5.68-.44,15.62,0,31.34,1.4,46.73,3.97,11.81,1.97,27.42,3.98,36.69-5.68,8.43-8.79-.17-18.49-7.2-24.58-8.2-7.11-16.82-14.3-26.93-18.34-17.41-6.95-31.12-16.2-42.58-31.61-13.79-18.56-18.61-42.22-17.51-65.12,1.17-24.46,7.81-40.49,26.98-55.67,15.73-12.46,34.96-16.46,60.75-19.13,6.12-.89,12.67-.89,18.79-.89,17.92,0,38.46,2.67,55.94,2.67,5.24,0,7.43,1.78,8.3,6.67v26.24c0,4.89,0,8.45.44,16.46.44,4.45.44,6.67.44,11.12,0,8.01-.44,6.65-.44,14.21v4.45c-.87,4-3.93,6.67-7.87,6.67-13.55,0-28.62-1.9-41.3-1.9h-3.93Z"/><path class="cls-7" d="M19.87,14.06h.44c3.93,0,6.56.44,10.05.44h2.62c8.3-.44,14.86-1.31,23.16-1.75,15.73-.87,24.47-.87,40.21-1.31,8.74-.44,17.04-.87,25.35-.87,19.23,0,37.58,1.31,61.18,1.31h3.93c3.5.44,5.24,2.62,5.24,5.68,0,30.59,1.75,65.99,1.75,96.58,0,4.37.44,8.74.87,13.11v4.37c0,2.19-.87,2.19-4.81,5.24-1.31.87-2.18,1.31-3.06,1.75-12.92,6.46-20.87,20.88-29.33,31.84-12.15,15.72-26.8,28.82-39.65,43.81-2.62,3.06-3.93,6.56-5.24,10.05,0,.87-.44,1.31-.44,1.75,0,1.75,1.31,3.06,3.06,3.93,2.19.87,4.37,1.75,6.99,1.75,10.93,1.75,24.91,1.75,38.46,1.75,11.36,0,16.54-1.31,27.03-2.19,4.37,0,6.99,2.62,7.43,6.99,0,2.19-.44,4.81-.44,6.99-.87,8.3-1.31,3.01-2.19,11.31-.44,6.12-.87,12.24-.87,18.36-.44,9.18-.87,18.35-.87,27.53v5.68c0,3.5.87,12.67.87,16.61,0,2.62-1.31,4.37-2.62,6.12-1.31,1.31-2.62,1.75-4.81,2.19h-2.19c-31.03,0-47.2-.44-78.23-.44-3.5,0-5.24.44-8.74.44-4.81.44-6.99.44-11.8.87-2.62,0-4.37.44-6.99.44h-.44c-10.49,0-17.48-.87-27.1-.87-3.93,0-7.43,0-11.36.44h-1.31c-5.24-.44-8.74-1.31-13.55-1.75-1.31,0-2.62-.44-3.93-.87-2.62,0-4.37-1.31-4.37-3.93v-.87c.44-4.37.87-9.18.87-13.55.44-4.37.44-8.3.87-12.67.87-13.55,1.75-27.53,2.62-41.08.44-5.68.44-11.36.87-17.04,0-4.37.44-8.74.87-13.11.44-3.06,1.75-5.68,4.38-7.87,15.62-10.94,26.29-30.45,39.41-44.26,14.19-14.94,27.33-31.05,39.3-47.81,2.19-3.06,3.06-6.12,3.93-9.18v-1.75c0-2.62-.87-4.81-3.06-6.12-3.06-1.75-6.12-3.5-9.61-3.93-6.56-.87-12.67-1.75-18.79-2.19-3.5-.44-6.99-.44-10.49-.44l-17.04.87c-6.99.44-6.61.44-14.04,2.62-1.75.44-4.37,0-6.56.44h-1.31c-3.06,0-6.12-2.19-8.3-3.93-1.31-1.31-1.75-3.5-1.75-5.24-.44-3.06,0-6.12-.44-9.18,0-28.84-1.31-42.09-1.31-70.06,0-2.19.44-4.81,1.31-5.68s2.62-1.31,3.93-1.31Z"/><path class="cls-7" d="M374.74,203.79c-6.56.44-12.24.87-18.79.87h-5.24c-10.49,0-18.79-.44-29.28-.44,0,0-3.06,20.04-3.06,33.59,0,1.31,3.06,1.31,4.37,1.75,6.12,1.31,12.24,1.75,18.79,1.75,11.36,0,24.91-1.31,35.4-1.31h.87c3.93,0,7.43,0,7.43,6.56,0,22.73.44,45.89.44,68.18v9.61c0,5.24-7.43,5.68-13.11,5.68h-3.06c-34.09,0-65.99,1.31-101.83,1.31-6.56,0-13.11,0-19.67.44h-11.36c-1.31,0-3.06,0-4.37-.44-2.62-1.31-4.37-3.5-4.37-6.99v-10.49c.44-9.18.44-18.79.44-27.97,0-63.37-1.75-131.55-1.75-200.16v-27.53c0-9.61.44-19.67.44-29.72v-5.68c0-3.5.44-6.56,1.75-10.05.87-1.31,1.75-2.19,3.5-2.19h.87c9.61,0,17.92.87,29.28.87,7.87,0,12.67.44,20.54.44,14.86.44,22.29,1.75,37.15,1.75,4.81,0,6.99,0,11.8-.44,4.81-.44,7.87-.44,12.67-.87,5.24-.44,13.98-.87,18.79-.87,5.24,0,8.3.44,13.98.44,2.62,0,4.81,1.31,6.56,3.93.44.87.44,1.31.44,2.19v4.81c.44,3.5,0,5.24.44,8.3.44,3.06.87,31.47.87,34.53,0,5.24-1.31,7.43-6.56,8.3-10.49,1.31-26.66,1.31-38.9,1.31h-14.86c-2.62,0-4.81,0-5.68,2.62-1.75,5.24-2.19,12.67-2.19,19.23v24.04c0,2.19,0,3.93.44,5.24s1.75,1.75,3.06,1.75c7.87,0,16.17.44,24.91.44,7.87,0,15.73-.44,23.16-1.31,1.31,0,2.19-.44,3.5-.44h.87c1.31,0,3.06.44,3.93,1.31,2.62,1.75,2.62,4.81,2.62,7.43v10.05c0,16.61-.87,6.99-.87,38.9v15.36c0,1.31,0,2.62-.87,3.5-.87,0-2.62.44-3.5.44Z"/><path class="cls-7" d="M619.9,197.61c0,7.43-.44,15.3-.87,22.73-4.37,55.94-9.62,98.77-55.07,112.75-15.73,5.24-34.96,6.99-56.38,6.99-43.27-1.75-63.37-11.8-74.73-45.89-3.93-11.8-6.99-20.1-9.18-35.4-3.93-21.41-5.68-43.27-6.12-65.99v-13.11c0-42.83,2.18-87.84,2.18-131.98,0-8.74.44-15.73.87-24.04v-.87c0-1.75,0-3.06.87-4.37.88-1.75,2.19-2.62,3.93-2.62h5.24c4.37.44,8.74.44,13.11.44,11.8,0,24.47-.87,35.4-.87,4.81,0,9.18.87,13.11,3.5,1.75,1.31,2.62,4.81,2.62,7.43v3.06c-2.18,41.08-2.62,84.35-2.62,123.24,0,20.54-3.7,65.5,25.35,64.68h2.19c24.22-2.03,18.79-30.59,22.29-45.02,4.37-19.67,5.68-41.08,5.68-62.06,0-27.1-2.18-55.5-2.18-83.04v-.44c0-3.5,1.75-5.68,5.24-5.68,3.5.44,7.87.44,12.24.44,8.3,0,17.48-.44,26.22-.44h3.93c7.43,0,14.42,0,19.67,1.75,3.5,1.75,5.25,1.75,5.25,6.56v1.75c0,46.76,1.75,95.71,1.75,143.78v22.73Z"/><path class="cls-7" d="M769.59,97.16c-5.25,0-10.49.89-15.73,3.11-5.24,2.67-8.11,4.46-9.42,10.68-.44,1.78-.44,3.55-.44,5.33,0,9.91,3.91,20.05,10.98,26.94,6.6,6.43,15.52,8.77,24.12,10.96,10.35,2.64,28.55,8.98,34.87,18.39,19.64,29.28,21.04,77.94,7.01,108.88-2.62,5.78-6.56,10.68-9.62,16.46-.87,2.22-3.06,4-4.81,6.23-4.37,4.89-9.18,9.34-14.86,12.9-.44.44-1.31.89-2.19,1.33-16.61,8.01-33.65,13.79-57.69,16.01-5.24.44-22.32,0-28.43,0h-2.62c-10.93,0-28.84-1.33-37.15-1.33-3.06,0-5.68-1.33-8.3-3.11-2.62-1.78-3.5-4-3.5-7.56.44-12.9.87-23.13.87-34.25,0-14.68.87-19.16.87-32.5,0-6.67-.44-13.79-.87-20.91v-1.78c0-3.11.87-4,3.93-4.89,1.75-.44,3.5-.44,5.68-.44,15.62,0,31.34,1.4,46.73,3.97,11.81,1.97,27.42,3.98,36.69-5.68,8.43-8.79-.17-18.49-7.2-24.58-8.2-7.11-16.82-14.3-26.93-18.34-17.41-6.95-31.12-16.2-42.58-31.61-13.79-18.56-18.61-42.22-17.51-65.12,1.17-24.46,7.81-40.49,26.98-55.67,15.73-12.46,34.96-16.46,60.75-19.13,6.12-.89,12.67-.89,18.79-.89,17.92,0,38.46,2.67,55.94,2.67,5.24,0,7.43,1.78,8.3,6.67v26.24c0,4.89,0,8.45.44,16.46.44,4.45.44,6.67.44,11.12,0,8.01-.44,6.65-.44,14.21v4.45c-.87,4-3.93,6.67-7.87,6.67-13.55,0-28.62-1.9-41.3-1.9h-3.93Z"/><path class="cls-6" d="M554.31,102.93c-.79.57-1.64,1.14-2.19,1.91-1.53,2.15-3.02,4.34-4.33,6.63,0,3.09-.05,6.18-.12,9.27,2,4.98,6.86,8.67,11.89,9.21,3.54.38,6.15-.97,7.89-4.08,1.76-3.15,2.71-6.51,2.71-8.68.07-7.37-2.54-11.76-7.61-14.68-2.79-1.61-5.6-1.49-8.25.42Z"/><path class="cls-6" d="M574.35,36.56c-.87.63-1.82,1.27-2.42,2.12-1.69,2.38-3.34,4.81-4.8,7.34,0,3.42-.05,6.84-.13,10.27,2.22,5.51,7.6,9.6,13.17,10.2,3.93.42,6.82-1.08,8.74-4.52,1.95-3.49,3-7.21,3-9.61.08-8.16-2.82-13.02-8.43-16.26-3.09-1.78-6.2-1.65-9.13.46Z"/><path class="cls-6" d="M694.12,59.98c-.87.63-1.82,1.27-2.42,2.12-1.69,2.38-3.34,4.81-4.8,7.34,0,3.42-.05,6.84-.13,10.27,2.22,5.51,7.6,9.6,13.17,10.2,3.93.42,6.82-1.08,8.74-4.52,1.95-3.49,3-7.21,3-9.61.08-8.16-2.82-13.02-8.43-16.26-3.09-1.78-6.2-1.65-9.13.46Z"/><path class="cls-6" d="M481.65,23.07c1.4.47,2.58.25,3.69-.74,1.52-1.36,2.38-3.55,2.42-5.69-2.68-.92-5.54-1.27-8.57-1.27-.42,0-.85,0-1.28.01-.09.54-.13,1.08-.11,1.63.02,3.37,1.24,5.18,3.86,6.06Z"/><path class="cls-6" d="M421.61,27.53c-.58,1.3-.86,2.74-1.28,4.11.15,3.32,1.23,5.12,3.8,6.15,1.53.61,2.86.35,3.97-.85,2.09-2.26,3.06-4.92,2.61-8-.31-2.14-2.13-3.76-4.49-4.15-1.97-.33-3.63.56-4.61,2.73Z"/><path class="cls-6" d="M521.1,309.02c.69,7.36,7.3,13.16,14.6,12.33,3.31-.37,5.71-2.21,6.63-5.42.5-1.76.77-3.58,1.16-5.36,1.36-6.16-2.42-15.17-6.97-18.8-3.29-2.62-7.53-2.59-10.68.25-1.57,1.42-2.72,3.09-3.45,5.1-.96,2.67-1.6,5.38-1.32,8.72,0,.75-.1,1.98.02,3.19Z"/><path class="cls-6" d="M528.94,267.62c5.05.34,9.86-3.26,11.16-8.19,1.24-4.67.63-9.19-.96-13.62-.75-2.08-1.97-3.93-3.59-5.45-2.11-1.99-5.25-2.46-7.41-1.06-5.47,3.55-8.62,8.46-8.81,15.2.39,2.15.62,4.34,1.2,6.43.97,3.47,4.86,6.45,8.4,6.69Z"/><path class="cls-6" d="M741.71,316.61c5.05.34,9.86-3.26,11.16-8.19,1.24-4.67.63-9.19-.96-13.62-.75-2.08-1.97-3.93-3.59-5.45-2.11-1.99-5.25-2.46-7.41-1.06-5.47,3.55-8.62,8.46-8.81,15.2.39,2.15.62,4.34,1.2,6.43.97,3.47,4.86,6.45,8.4,6.69Z"/><path class="cls-6" d="M340.09,250.68c.35,3.47,1.73,6.53,3.45,9.53,1.09,1.91,2.58,3.19,4.56,3.99,2.82,1.14,4.88.61,6.83-1.71,2.13-2.53,2.99-5.53,3.24-8.4.22-5.25-2.94-10.45-7.31-13-2.56.11-5.09.19-7.53.21-2.55,2.58-3.6,5.71-3.23,9.38Z"/><path class="cls-6" d="M551.65,292.23c1.94.81,3.81.71,5.47-.72,1.86-1.61,3.55-3.37,4.36-5.76.31-.9.48-1.89.51-2.84.04-1.32-.61-2.47-1.83-2.92-1.58-.59-3.24-1.17-4.9-1.26-2.9-.16-5.1,1.63-5.89,4.47-.29,1.05-.38,2.15-.46,2.62,0,1.1,0,1.59,0,2.08,0,2.03.84,3.54,2.74,4.33Z"/><path class="cls-6" d="M266.57,177.39c3.49-5.29,1.2-10.85-4.93-12.58-2.32-.66-4.77-.86-7.16-1.27-.01.07-.02.14-.04.22-.49,0-.97,0-1.46,0-3.4-.06-6.16,1.21-8.22,3.94-1.24,1.65-2.48,3.31-3.7,4.98-3.37,4.6-1.57,11.24,4.8,12.99,9.12,2.51,15.86-.92,20.72-8.28Z"/><path class="cls-6" d="M254.62,253.14c3.63-.05,6.06-2.38,6.09-5.86.08-4.48-2.69-6.19-5.98-6.38-3.82-.22-6.5,2.25-6.47,5.79.03,3.96,2.54,6.49,6.36,6.44Z"/><path class="cls-6" d="M228.3,296.85c.52,1,1.19,1.92,2.06,2.72,2.73,2.52,5.9,2.73,8.82.38,2.7-2.16,3.5-5.13,3.8-8.5-.21-1.19-.42-2.51-.68-3.82-.61-2.97-2.51-4.97-5.07-6.32-3.32-1.75-6.51-.8-8.51,2.37-.14.21-.27.45-.39.69,0,.5,0,1.01,0,1.51,0,3.6,0,7.27-.03,10.96Z"/><path class="cls-6" d="M354.38,328.56c-2.82-4.02-6.59-6.35-11.62-6.42-2.32-.03-3.91,1.06-5.03,3.01-.89,1.56-1.38,3.37-1.48,5.22,6.25-.11,12.52-.2,18.82-.26-.14-.55-.36-1.07-.69-1.55Z"/><path class="cls-6" d="M359.97,289.93c-1.6-1.47-3.16-1.35-4.94-.07-3.65,2.62-4.31,9.6-1.73,12.92.37.48.8.93,1.26,1.31,1.75,1.42,3.54,1.37,5.29-.08,2.14-1.78,2.97-4.09,2.98-6.86-.32-1.54-.48-3.13-1-4.59-.35-.98-1.08-1.91-1.86-2.63Z"/><path class="cls-6" d="M274.6,299.17c-.83-4.12-2.69-7.55-6.51-9.6-4.26-2.29-9.05-.31-10.47,4.35-.42,1.37-.49,2.85-.72,4.28-.01,3.59,1.12,6.72,3.28,9.51.99,1.28,2.21,2.3,3.7,2.88,2.12.83,4.39,1.1,6.19-.56,3.13-2.89,5.47-6.22,4.54-10.86Z"/><path class="cls-6" d="M448.18,232.9c1.66-4.71.99-9.09-1.51-13.33-1.7-2.88-4.2-4.7-7.23-5.88-2.52-.98-4.78-.43-6.77,1.37-3.29,2.97-4.69,6.73-4.8,11.05.09,4.87,2,8.76,6.03,11.51,5.37,3.67,12.12,1.4,14.28-4.72Z"/><path class="cls-6" d="M467.99,267.26c-1.15,1.56-1.41,3.33-.99,5.2.2.89.78,1.49,1.67,1.76,2.6.78,5.34-1.26,5.28-4.53-.21-.48-.5-1.56-1.09-2.43-1.3-1.89-3.51-1.85-4.86,0Z"/><path class="cls-6" d="M433.03,147.75c-.33,1.79-.61,3.6-.91,5.39,0,3.78,1.37,6.95,3.66,9.82.91,1.14,1.95,2.23,2.62,3.51,1.93,3.67,5.15,4.99,9.01,5.34,2.89.26,5.52-.67,8.21-1.55,3.71-1.22,5.91-3.7,6.88-7.42.55-2.12,1.21-4.22,1.77-6.35.46-1.73.29-3.42-.74-4.92-2.38-3.45-5.04-6.61-8.9-8.52-1.31-.65-2.62-1.32-3.9-2.02-4.86-2.64-9.46-1.69-13.84,1.12-2,1.29-3.4,3.16-3.85,5.58Z"/><path class="cls-6" d="M459.96,205.77c2.21,3.96,8.64,4.88,11.68,1.54,1.91-2.09,3.19-4.61,3.17-7.77-.07-2.04-.5-4.21-1.45-6.2-1.22-2.57-2.91-4.79-5.63-6.02-3.09-1.4-6.18-.47-7.85,2.47-.47.84-.8,1.79-1.02,2.73-.84,3.64-.26,7.28.13,10.91.09.81.55,1.62.96,2.35Z"/><path class="cls-6" d="M482.09,113.84c-.79,2.25-1.05,4.59-.32,6.82,1.54,4.76,3.88,5.8,7.38,5.69.36,0,.73,0,1.09,0,.77-.02,1.48-.14,2.14-.33.03-4.84.07-9.73.13-14.64-.76-.43-1.56-.81-2.36-1.19-2.59-1.21-6.81.13-8.05,3.65Z"/><path class="cls-6" d="M487.9,73.41c-.63-1.04-1.32-2.07-2.14-2.96-1.81-1.97-4.25-2.48-6.68-1.46-2.07.87-3.74,2.22-4.86,4.26-1.28,2.33-1.76,4.79-1.54,7.64-.46,3.09,1.03,6,2.04,8.98.61,1.78,2,3.09,3.61,4.01,2.14,1.22,4.63,1.57,6.65.24,3.46-2.27,6.14-5.37,5.95-9.88-.16-3.81-1.02-7.51-3.02-10.83Z"/><path class="cls-6" d="M226.58,65.63v16.05s.01,0,.02-.01c3.48-2.8,5.24-9.35,2.57-13.26-.75-1.1-1.62-2.02-2.58-2.78Z"/><path class="cls-6" d="M438.48,16.21c1.79,2.24,4.52,3.76,7.64,3.77,2.47.23,4.75-.84,6.37-3.04.2-.27.39-.55.58-.83-3.13.09-6.24.15-9.3.15-1.77,0-3.53,0-5.3-.04Z"/><path class="cls-6" d="M498.57,220.15c-.83-.64-1.92-1.19-2.94-1.28-1.68-.16-3.47-.21-5.08.22-6.38,1.72-11.56,5.28-14.74,11.17-2.33,4.3-3.06,8.9-1.66,13.8,2.48,8.68,12.07,14.35,21.17,9.55.43-.23.88-.43,1.3-.67,4.8-2.76,7.67-6.69,7.54-12.44-.02-.98,0-1.95,0-3.26.2-3.1-.22-6.48-.98-9.83-.68-2.99-2.23-5.41-4.62-7.25Z"/><path class="cls-6" d="M691.5,283.03c-.83-.64-1.92-1.19-2.94-1.28-1.68-.16-3.47-.21-5.08.22-6.38,1.72-11.56,5.28-14.74,11.17-2.33,4.3-3.06,8.9-1.66,13.8,2.48,8.68,12.07,14.35,21.17,9.55.43-.23.88-.43,1.3-.67,4.8-2.76,7.67-6.69,7.54-12.44-.02-.98,0-1.95,0-3.26.2-3.1-.22-6.48-.98-9.83-.68-2.99-2.23-5.41-4.62-7.25Z"/><path class="cls-6" d="M492.18,276.89c-2.62-2.27-7.65-2.96-9.89,2.3-.79,1.86-.99,3.98-1.27,5.19.09,4.95,2.54,8.39,6.14,9.43,2.59.75,4.78.04,6.47-2.1,3.51-4.46,2.84-11.1-1.46-14.82Z"/><path class="cls-6" d="M552.25,60.17c2.45-2.38,3.63-5.18,2.63-8.59-1-3.42-3.15-5.81-6.72-6.51-.79-.16-1.55-.21-2.28-.19.16,5.94.36,11.9.59,17.85,1.65-.1,3.34-.71,4.92-1.88.29-.22.6-.43.86-.68Z"/><path class="cls-6" d="M447.59,60.38c4.28.04,6.26-.82,8.3-3.66,1.06-1.48,2.02-3.05,2.82-4.68,1.72-3.53.84-7.7-2.1-10.25-2.25-1.95-4.91-3.14-7.82-3.7-3.73-.72-6.77.54-8.88,3.63-3.02,4.41-3.38,9-.52,13.69,1.99,3.26,4.63,5.29,8.21,4.97Z"/><path class="cls-6" d="M550.08,21.12c-1.57.16-2.72.83-3.46,1.89,1.22-.49,2.38-1.11,3.46-1.89Z"/><path class="cls-6" d="M437.63,108.59c.75,1.88,2.15,3.27,4.24,3.68,3.54.7,6.59-.8,8.18-4.06,1.27-2.61,1.62-5.35.9-8.19-.83-3.25-3.42-5.5-6.42-5.6-3.1-.11-5.88,1.77-6.97,4.91-.51,1.48-.71,3.06-1.07,4.68.37,1.54.55,3.14,1.13,4.58Z"/><path class="cls-6" d="M455.51,322.37c4.78,4.75,10.63,3.49,15.07-.23,1.77-1.48,3.16-3.5,3.36-5.91.19-2.29.37-4.68-.05-6.91-1.05-5.47-4.35-9.47-9.25-11.99-3.34-1.72-7.13-.8-9.65,2.01-2,2.23-3.28,4.83-3.54,7.85-.1,1.21-.02,2.43-.02,3.65h-.12c0,.61.03,1.22,0,1.83-.2,3.93,1.45,6.97,4.2,9.7Z"/><path class="cls-6" d="M376.71,313.22c-.56,2.98-1.26,5.99-.74,9.07,0,1.7-.19,3.43.04,5.1.11.85.26,1.69.43,2.52,4.69-.31,9.23-1.47,9.23-5.57v-9.61c0-4.79-.02-9.62-.05-14.47-.69.31-1.34.72-1.97,1.24-3.71,3.08-6.05,7-6.93,11.72Z"/><path class="cls-6" d="M238.22,55.16c.44-.04,1.2,0,1.88-.21,3.08-1,5.22-3.12,6.34-6.08.78-2.06.31-4.14-1.31-5.73-1.75-1.72-3.81-3.04-6.17-3.74-2.51-.74-4.91.08-6.44,2.22-.63.88-1.24,1.87-1.49,2.9-1.48,6.08.97,10.18,7.19,10.65Z"/><path class="cls-6" d="M423.22,196.13c.37-1.91.54-3.87.88-6.36-.21-1.27-.32-3.13-.84-4.86-1.17-3.9-2.99-7.19-5.67-9.72,0,1.5-.03,3.02-.03,4.51v13.11c.08,4.08.22,8.12.38,12.14,2.62-2.33,4.56-5.18,5.27-8.82Z"/><path class="cls-6" d="M452.07,276.21c.93-.78,1.85-1.65,2.5-2.66,1.68-2.59,2.4-5.4.78-8.3-.97-1.73-2.39-3.11-4.2-3.97-.86-.41-1.84-.56-2.93-.87-.85.38-1.83.64-2.57,1.19-3.78,2.82-5.56,10.23,0,14.69,1.87,1.5,4.58,1.47,6.43-.08Z"/><path class="cls-6" d="M227.8,214.4c1.06-1.42,1.55-3.28,1.26-5.23-.16-1.1-.66-2.2-1.37-3.16.04,2.8.07,5.6.1,8.39Z"/><path class="cls-6" d="M356.96,169.01c.72,1.89,1.97,3.37,3.61,4.49,3.19,2.19,7.12,1.59,9.38-1.52.77-1.06,1.31-2.34,1.74-3.59,1.44-4.12,1.5-8.39.92-12.66-.23-1.67-.77-3.33-1.42-4.89-1.1-2.64-3.28-4.21-5.93-5.09-2.11-.7-4.1-.27-5.85,1.14-1.17.94-1.94,2.17-2.49,3.56-1.19,2.98-1.97,6.03-1.57,9.31-.4,3.22.45,6.26,1.59,9.25Z"/><path class="cls-6" d="M112.72,153.61c.72,1.89,1.97,3.37,3.61,4.49,3.19,2.19,7.12,1.59,9.38-1.52.77-1.06,1.31-2.34,1.74-3.59,1.44-4.12,1.5-8.39.92-12.66-.23-1.67-.77-3.33-1.42-4.89-1.1-2.64-3.28-4.21-5.93-5.09-2.11-.7-4.1-.27-5.85,1.14-1.17.94-1.94,2.17-2.49,3.56-1.19,2.98-1.97,6.03-1.57,9.31-.4,3.22.45,6.26,1.59,9.25Z"/><path class="cls-6" d="M376.38,134.1c.84,1.53,1.98,2.84,3.6,3.34v-1.89c0-2.62,0-5.68-2.62-7.43-.53,1.26-.98,2.56-1.31,3.88-.16.64,0,1.5.33,2.1Z"/><path class="cls-6" d="M337.74,23.45c2.42.55,4.43-.26,5.45-2.54.68-1.52.95-3.23,1.4-4.85-.06-1.38-.33-2.6-.84-3.68-4.09.34-7.01.39-11.13.74-.18.54-.34,1.09-.46,1.63-.99,4.44,1.15,7.69,5.59,8.7Z"/><path class="cls-6" d="M652.75,281.27c-.04,2.05-.07,4.3-.07,6.87,0,8.02-.23,15.59-.52,24.02,4.43-1.15,7.49-4.43,8.44-9.25.07-.36.18-.71.22-1.07.82-6.59-.5-12.62-4.87-17.77-.94-1.11-2-2.05-3.19-2.79Z"/><path class="cls-6" d="M797.45,310.07c-3.19-7.55-12.94-10.43-19.7-5.71-2.28,1.59-4.32,3.55-6.37,5.45-.78.72-1.5,1.67-1.89,2.65-1.96,4.9-1.74,9.6.92,13.88,6.65-2.3,12.9-4.97,19.09-7.95.87-.44,1.75-.89,2.19-1.33,2.33-1.46,4.5-3.07,6.56-4.79-.22-.74-.49-1.47-.79-2.18Z"/><path class="cls-6" d="M828.6,212.39c-1.26-7.89-3.24-15.56-5.95-22.7-3.75-3.13-8.28-4.37-13.03-1.43-2.3,1.42-4.21,3.38-5.12,6.03-.59,1.72-1.16,3.48-1.45,5.27-.72,4.39.12,8.55,2.74,12.15,2.23,3.07,5,5.67,8.33,7.58.94.54,1.96,1.02,3,1.31,2.23.63,4.36.27,6.25-1.13,2.57-1.91,4.23-4.27,5.23-7.08Z"/><path class="cls-6" d="M716.07,271.16c-1.42-.34-2.59-.03-3.74.87-2.78,2.18-3.44,5.19-3.56,9.05,0,3.27,1.4,6.3,5.05,8,2.74,1.28,5.02.79,6.75-1.67.97-1.37,1.81-2.92,2.32-4.52,1.71-5.45-1.25-10.4-6.81-11.73Z"/><path class="cls-6" d="M604.91,294.61c-2.74-3.93-6.21-7.23-10.98-8.7-2.98-.92-5.83-.8-8.03,1.78-1.26,1.47-2.64,2.94-3.5,4.64-2.62,5.18-3.74,10.79-4.15,16.41.2,5.17,1.54,9.74,4.94,13.6.31.36.64.68.97.99,9.77-7.02,16.56-16.37,21.42-27.63-.21-.37-.42-.73-.67-1.08Z"/><path class="cls-6" d="M510.78,332.99c.21-2.73-.14-5.6-1.62-8.26-.35-.63-.51-1.37-.8-2.04-2.2-5.02-5.97-8.38-11.24-9.69-5.03-1.26-7.97.02-10.63,4.23-.32.51-.57,1.08-.86,1.62-1.34,2.52-1.77,5.29-2.31,8.06-.74,3.83-.31,7.48.96,11.01,6.92,1.14,14.64,1.83,23.31,2.18.8,0,1.59,0,2.39-.01.6-1.49.89-3.14.81-5-.02-.61,0-1.22,0-2.08Z"/><path class="cls-6" d="M341.93,140.58c-1.85-1.45-3.67-1.18-5.07.67-1.8,2.39-2.11,7.21-.62,9.78,1.5,2.58,4.62,3.03,6.86,1.05,1.62-1.43,2.05-3.25,1.92-5.41.45-2.67-1.08-4.52-3.08-6.09Z"/><path class="cls-6" d="M261.18,33.39c.99,3.8,2.79,7.27,4.68,10.68,1.11,2,2.91,3.23,5.02,4.05,3.68,1.42,7.3,1.41,11.02-.05,5.17-2.02,7.4-4.98,7.66-10.48-.39-2.14-.52-4.37-1.22-6.41-1.95-5.72-5.71-9.93-11.49-11.92-3.53-1.21-7.19-1.38-10.57.73-4.36,2.72-6.46,8.2-5.11,13.4Z"/><path class="cls-6" d="M311.11,139.69c-2.83-.34-5.11,1.07-5.99,3.78-1.6,4.95-2.45,9.98-.28,15.03.43,1.01.84,2.03,1.34,3.01,2.14,4.22,4.41,5.46,9.13,5.16,1.55-.1,2.78-.68,3.93-1.7,3.1-2.73,4.14-6.23,3.95-10.91,0-.03-.09-.76-.12-1.49-.19-5.32-3.37-8.78-7.47-11.5-1.26-.84-2.95-1.2-4.5-1.39Z"/><path class="cls-6" d="M287.77,70.55c.58-1.12.85-2.3.54-3.54-.26-1.07-.53-2.14-.91-3.17-1.08-2.92-3.47-4.06-6.43-3.14-2.8.87-4.17,3.04-4.15,6.84.02.22.02.71.1,1.19.36,2.39,2.82,5.06,4.91,5.37,2.14.31,4.75-1.24,5.94-3.54Z"/><path class="cls-6" d="M279.89,213.6c.74,4.64,6.24,7.63,10.33,5.58,1.82-.91,3.04-2.43,3.85-4.27.79-1.82,1.06-3.73,1.08-5.72.04-3.48-1.78-5.77-4.66-7.3-3.08-1.64-6.31-.79-8.42,2.01-1.6,2.12-2.6,4.42-2.35,7.14.05.85.03,1.72.17,2.56Z"/><path class="cls-6" d="M271.78,89.21c-1.22-2.65-2.59-5.24-3.84-7.88-1.39-2.93-3.8-4.43-6.89-4.73-2.17-.22-4.41-.27-6.56,0-3.11.39-5.93,1.66-7.57,4.52-1.39,2.42-2.61,4.95-3.71,7.52-.51,1.2-.59,2.6-.79,3.91-.15.96-.08,1.96-.25,2.91-.68,3.68.39,7.27.47,10.91,0,.35.17.71.32,1.04,2.07,4.59,4.55,8.9,8.51,12.16,1.43,1.17,3.03,2.3,4.91,2.17,2.29-.16,4.74-.32,6.76-1.26,4.09-1.9,7.19-5.01,8.62-9.46,1.23-3.85,1.62-7.86,2.16-11.74-.23-3.54-.68-6.92-2.13-10.07Z"/><path class="cls-6" d="M267.51,264.34c-2.95-.58-5.5.63-7.05,3.4-1.1,1.95-1.63,4.08-1.83,6.29-.2,2.2.67,4.09,2.12,5.67,2.4,2.62,6.61,2.65,8.76-.02,1.79-2.22,3.04-4.73,2.94-8.34,0-.1,0-.84-.13-1.56-.47-2.74-2.48-4.99-4.79-5.45Z"/><path class="cls-6" d="M233.49,123.52c-1.84-2.96-4.07-5.61-6.8-7.75.04,7.04.1,14.07.17,21.09,1.91-.72,3.57-2.01,5.17-3.45,3.23-2.92,3.62-6.41,1.47-9.88Z"/><path class="cls-6" d="M301.24,113.65c-.1-5.22-4.01-8.49-8.84-8.97-1.29-.13-2.39.33-3.38,1.11-2.49,1.98-3.46,4.62-3.35,7.55-.14,6.36,4.62,9.68,9.47,9.3,1.27-.1,2.32-.59,3.28-1.41,2.36-2.01,2.87-4.68,2.82-7.58Z"/><path class="cls-6" d="M297.66,18.59c.86.4,1.84.52,2.42.68,2.94-.28,5.03-1.34,6.6-3.39.62-.81,1.1-1.66,1.49-2.55-5.29-.27-10-.67-15.48-1,.76,2.67,2.66,5.2,4.96,6.27Z"/><path class="cls-6" d="M323.75,272.48c2.45,1.72,5.48,1.01,6.83-1.61,1.09-2.11,1.5-4.37,1.03-6.72-.56-2.83-2.22-4.86-4.81-6.02-2.95-1.33-5.74.08-6.46,3.22-.24,1.05-.22,2.17-.32,3.26-.2,3.32,1,5.97,3.73,7.88Z"/><path class="cls-6" d="M319.6,217.99c-.42,1.27-.62,2.61-.8,3.41-.04.93.06,1.84.27,2.7.19-2.19.41-4.33.63-6.36-.03.08-.06.17-.09.25Z"/><path class="cls-6" d="M343.41,200c.52-1.73.74-3.56.92-4.46,0-7.01-3.2-11.36-7.87-14.64-3.67-2.58-7.84-1-9.52,3.19-.36.9-.56,1.87-.85,2.8-1.21,4-.59,7.97.24,11.93.57,2.68,2.04,4.56,4.64,5.5,3.1.06,6.13.14,9.21.2,1.59-1.12,2.65-2.67,3.22-4.54Z"/><path class="cls-6" d="M346.46,42.05c-4.02-2.56-7.04-1.72-9.55,2.33-1.81,2.92-2.48,6.08-2.05,9.84,0,.97-.18,2.35.05,3.65.25,1.41.6,2.96,1.41,4.08,1.21,1.65,2.81,3.04,4.35,4.42.93.83,2.15,1.16,3.43.9,3.67-.73,6.53-2.46,8.23-6,3.76-7.83-.33-15.71-5.87-19.23Z"/><path class="cls-6" d="M377.29,203.44c-1.02-1.57-2.34-3.02-3.97-4.31-.63-.5-1.54-.78-2.35-.87-2.83-.3-5.03.85-6.32,3.39-.48.94-.85,1.88-1.14,2.82,3.68-.17,7.29-.43,11.22-.69.62,0,1.68-.22,2.56-.35Z"/><path class="cls-6" d="M548.85,205.94c.07-.97.07-1.96-.04-2.92-.48-4.56-3.2-7.01-8.2-7.06-.38-.01-.79,0-1.21.03-.77,4.73-2.04,9.23-4.4,12.88,2.45,1.92,5.46,2.59,8.79,2.38,2.91-.19,4.86-2.39,5.06-5.31Z"/><path class="cls-6" d="M85.42,245.01c-.88,1.26-1.45,2.83-1.82,4.35-.87,3.54.94,7.27,4.15,8.96,2.56,1.35,5.43.76,7.21-1.53,1.39-1.79,2.08-3.84,2.2-6.83-.23-.86-.44-2.47-1.08-3.89-2.05-4.57-7.8-5.16-10.66-1.06Z"/><path class="cls-6" d="M123.37,307.65c-2.39-.5-4.02.34-5.07,2.52-2.04,4.25-.62,10.71,3.01,13.69,2.84,2.33,6.89,1.06,7.82-2.5.27-1.04.26-2.16.37-3.25,0-2.23-.37-4.38-1.29-6.4-.96-2.12-2.52-3.57-4.84-4.06Z"/><path class="cls-6" d="M94.59,153.4c2.64-3.44,4.36-7.32,4.12-11.83-.1-1.21-.12-2.44-.34-3.63-.09-.48-.23-.95-.39-1.42-4.7,6.32-9.57,12.53-14.59,18.6,3.74,2.6,8.39,1.92,11.19-1.73Z"/><path class="cls-6" d="M77.53,70.69c-4.17-.15-8.1,4.82-6.92,8.83.56,1.92,1.7,3.5,3.28,4.73,1.64,1.27,3.79,1.31,5.42.08,2.06-1.55,3.26-3.58,3.11-7.11-.17-.7-.4-2.29-.96-3.75-.66-1.7-2-2.7-3.93-2.77Z"/><path class="cls-6" d="M50.41,194.97c.72-1.02,1.18-2.13,1.44-3.28-1.38,1.8-2.77,3.61-4.16,5.42,1.04-.4,1.99-1.11,2.72-2.14Z"/><path class="cls-6" d="M52.23,100.42c-1.29.35-2.57.82-3.77,1.39-1.25.6-2.19,1.6-2.42,3.04-.09.58-.15,1.15-.18,1.72.71-.05,1.51-.1,2.46-.16l12.06-.62c-.61-4.03-4.23-6.45-8.16-5.37Z"/><path class="cls-6" d="M33.32,78.5c-2.19,1.03-3.94,2.57-4.63,4.9-1.59,5.4,1.3,9.29,6.05,9.23,2.92,0,4.41-1.2,5.32-4.02.71-2.21.12-4.33-.07-6.5-.28-3.2-4.19-4.77-6.67-3.6Z"/><path class="cls-6" d="M75.93,173.8c2.49,0,5.11-2.46,5.68-5.38.12-.59.13-1.21.19-1.86-.08-.69-.09-1.43-.26-2.13-.37-1.52-1.43-2.89-2.74-3.81-2.8,3.28-5.66,6.52-8.56,9.71,1.17,2,3.46,3.47,5.69,3.48Z"/><path class="cls-6" d="M19.51,14.73c.23,3.77,2.21,6.38,5.61,7.94,3.25,1.49,5.9.73,7.96-2.24,1.26-1.82,1.76-3.86,2.05-6.06-.71.04-1.42.09-2.15.13h-2.62c-3.5,0-6.12-.44-10.05-.44h-.44c-.13,0-.26,0-.39.02.01.22.02.44.03.66Z"/><path class="cls-6" d="M106.72,299.55c0-1.06-.01-1.55,0-2.04.21-6.95-2.82-12.47-7.67-17.14-.86-.82-1.93-1.59-3.04-1.95-2.31-.73-4.69-1.31-7.09-1.68-2.87-.45-5.61.25-8.01,1.88-3.55,2.42-6.63,5.37-8.95,9.01-1.31,2.05-2.44,4.22-3.6,6.36-2.92,5.37-2.86,10.75.24,15.99,1.86,3.14,3.9,6.18,5.94,9.22,1.87,2.78,4.41,4.86,7.31,6.5,1.99,1.12,4.05,1.62,6.31.79.79-.29,1.65-.52,2.49-.58,4.58-.33,7.85-2.95,9.99-6.6,3.64-6.23,6.71-12.77,6.09-19.77Z"/><path class="cls-6" d="M188.5,135.72c.53.41,1.09.71,1.65.94,3.69-2.84,4.53-2.9,4.53-5.03v-4.37c-.21-2.13-.43-4.27-.59-6.4-.8-.44-1.67-.76-2.58-.93-2.74-.5-4.85.45-6,3.01-.64,1.41-.88,3-1.3,4.5.19,3.5,1.63,6.24,4.29,8.29Z"/><path class="cls-6" d="M192.62,114.51c.4.23.81.41,1.21.54,0-.3-.02-.6-.02-.91,0-3.36-.02-6.78-.06-10.24-.91-.1-1.79.09-2.62.84-1.43,1.29-2.42,2.84-1.98,4.83.46,2.08,1.57,3.84,3.47,4.94Z"/><path class="cls-6" d="M118.08,231.06c-2.43,3.66-3.15,8.35-.52,12.98.54.95,1.16,1.87,1.78,2.77,2.62,3.78,6.34,5.14,10.81,4.89,1.97-.11,3.51-.93,4.65-2.52,2.33-3.26,3.96-6.75,3.41-11.18,0-.83.05-1.93-.01-3.03-.04-.62-.13-1.22-.27-1.79-5.63-.24-10.97-.67-15.73-1.43-1.49,0-2.84-.29-4.12-.69Z"/><path class="cls-6" d="M141.33,262.91c-4.73-.91-7.54,1.51-8.51,4.88-.8,2.75-.4,5.29,1.21,7.62,2.46,3.57,7.35,3.57,9.83.03,1.3-1.85,1.89-3.92,1.78-6.18-.04-.6-.04-1.21-.14-1.81-.33-2.14-2.09-4.13-4.18-4.53Z"/><path class="cls-6" d="M42.44,242.34c1.57-1.52,2.38-3.36,2.6-5.5.16-1.58.29-3.16.54-4.73.97-6.26-1.58-10.92-6.59-14.44-2.54-1.78-5.42-1.51-7.68.57-1.67,1.54-2.84,3.33-3.12,5.64-.25,2.05-.57,4.1-.84,6.04.22,1.84.37,3.54.63,5.22.61,3.96,3.09,6.55,6.43,8.4,2.85,1.58,5.68,1.06,8.02-1.21Z"/><path class="cls-6" d="M109.69,10.82c-.07.14-.15.28-.22.43-1.72,3.73-1.29,7.62.69,11.28,3.32,6.14,12.93,7.92,17.3,2,1.46-1.98,1.98-4.15,2.18-6.56-.29-1.42-.35-2.94-.93-4.24-.51-1.14-1.14-2.19-1.87-3.14-1.72-.02-3.43-.03-5.16-.03-3.98,0-7.97.1-12,.26Z"/><path class="cls-6" d="M186.47,261.55c-3.62-2.79-7.6-3.23-11.69-1.18-3.82,1.92-5.73,5.15-5.81,10.31.25,1.57.61,3.98,1.04,6.38.08.46.31.95.61,1.32,2.56,3.21,5.55,5.74,9.71,6.76,4.1,1,8.44-1.83,9.63-4.95,1.32-3.47,1.57-7.14,1.39-10.79-.17-3.44-2.29-5.86-4.87-7.84Z"/><path class="cls-6" d="M109.84,74.89c2.98,3.08,6.53,3.67,10.42,2.5,4.64-1.4,7.49-4.87,9.56-9.02.69-1.38.91-2.99,1.25-4.2-.24-1.47-.26-2.6-.62-3.61-2.84-7.93-8.18-11.74-16.34-12.58-1.89-.19-3.65.4-5.21,1.43-2.73,1.79-4.71,4.19-5.72,7.36-1.05,3.29-.77,6.46.39,9.67,1.25,3.47,3.79,5.9,6.25,8.45Z"/><path class="cls-6" d="M43.63,31.2c-1.33,1.24-2.58,2.61-3.66,4.08-2.23,3.01-3.35,6.47-3.59,9.75,0,.7-.02.94,0,1.18.43,5.75,2.55,10.9,5.75,15.6.64.94,1.78,1.69,2.85,2.17,3.38,1.53,6.44.81,8.96-1.89,1.63-1.74,2.49-3.88,3.24-6.09.91-2.69,1-5.5,1.43-8.27.7-4.5-.36-8.72-1.77-12.89-.34-1.01-.99-1.97-1.67-2.81-3.12-3.87-7.9-4.23-11.54-.84Z"/><path class="cls-6" d="M166.17,318.06c.17-7.94-3.69-13.06-11.17-14.44-4.07-.75-7.61.68-9.56,4.33-.8,1.49-1.34,3.14-1.89,4.75-1.09,3.16-.96,6.51-1.23,9.78-.11,1.37.37,2.96,1.05,4.19,1.43,2.61,3.35,4.72,5.78,6.25,3.28.03,6.61.06,10.07.08,4.27-4.06,6.67-9.02,6.95-14.95Z"/><path class="cls-6" d="M57.32,310.4c-1.66,1.97-2.25,4.29-1.6,6.81.66,2.52,3.19,4.3,5.41,3.94,2.2-.36,3.68-2.41,3.73-5.71,0-1.6-.76-3.49-2.16-5.1-1.53-1.76-3.86-1.76-5.39.06Z"/><path class="cls-6" d="M101.4,224.52c1.75,1.22,3.99.81,5-1.09.55-1.04.77-2.26,1.18-3.53-.49-1.12-.81-2.31-1.48-3.27-1.24-1.78-3.42-1.91-5.09-.5-2.8,2.36-2.62,6.28.4,8.38Z"/><path class="cls-6" d="M61.88,270.47c3.02-3.1,4.7-6.8,4.49-11.23.24-3.16-1.09-5.96-2.21-8.77-.82-2.07-2.62-3.08-4.95-3.13-5.89-.12-10.98,4.37-11.82,10.37-.7,5.03,1.45,9.11,4.43,12.72,2.63,3.19,7.15,3.04,10.06.05Z"/><path class="cls-6" d="M149.35,129.31c-1.26,2.09-2.52,4.18-3.76,6.27-.59.99-.8,2.08-.46,3.17,1.13,3.6,2.95,6.7,6.45,8.51,1.21.62,2.49,1.17,3.85.94,2.28-.39,4.58-.76,6.77-1.48,2.59-.84,4.23-2.75,4.91-5.47.76-3.07.71-6.09-.65-8.94-1.51-3.18-3.87-5.31-7.67-5.24-.73.01-1.46,0-2.2,0-1.1,0-2.2,0-3.29,0-1.72.02-3.05.75-3.95,2.23Z"/><path class="cls-6" d="M141.86,184.35c.21-1.44.29-2.91.54-4.35.57-3.28-.13-6.28-1.74-9.13-4.01-7.08-13.08-7.62-17.9-1.08-2.12,2.87-3.05,6.06-2.85,9.34-.28,6.93,2.93,11.93,7.79,16.03,2.02,1.7,4.43,2.08,6.61,1.27,1.89-1.97,3.78-3.95,5.66-5.93.96-1.9,1.58-3.95,1.9-6.14Z"/><path class="cls-6" d="M174.01,62.54c1.58-.04,2.8-.69,3.74-1.92,2.36-3.06,1.95-8.35-.76-11.05-1.77-1.76-3.84-2.01-6.06-1.36-2.16.63-3.46,2.19-3.92,4.38-.17.83-.17,1.69-.21,2.04.02,4.86,3.11,8.01,7.2,7.9Z"/><path class="cls-6" d="M110.31,123.24c1.91-.2,3.79-2.08,4.26-4.47.23-1.19.22-2.42.29-3.36-.06-1.25-.07-2.23-.15-3.2-.16-1.86-1.07-3.3-2.85-3.88-1.99-.65-3.87-.25-5.36,1.34-.7.75-1.25,1.74-1.63,2.83,1.74,1.33,2.46,3.34,2.46,5.7v1.75c-.2.69-.4,1.38-.61,2.08,1.06.88,2.35,1.34,3.59,1.21Z"/><path class="cls-6" d="M161.26,31.36c1.55-.81,2.86-2.01,3.45-3.63.66-1.81,1.15-3.72,1.4-5.63.35-2.65-.95-4.71-3-6.28-2.07-1.58-5.52-1.41-7.42.39-2.21,2.1-3.46,4.67-3.4,8.05-.12,1.77.43,3.6,1.58,5.26,1.74,2.53,4.65,3.28,7.39,1.84Z"/><path class="cls-6" d="M176.5,85.32c-.63-.95-1.78-1.66-2.83-2.21-1.76-.91-3.71-1.19-5.7-1.11-3.63.15-6.41,3.01-6.44,7.51.46,4.99,3.54,9.38,8.01,12.9,1.21.95,2.81,1.09,4.21.47,1.77-.78,3.53-1.69,5.11-2.81,1.83-1.31,2.5-3.19,1.92-5.5-.84-3.37-2.38-6.42-4.28-9.26Z"/><path class="cls-6" d="M738.42,64.67c.53,1.35,1.77,1.98,3.2,2.12,1.99.19,3.6-.61,4.78-2.17,1.28-1.7,1.97-3.64,1.92-5.8,0-2.42-.63-3.97-2.28-5.58-2.66-2.59-5.82-2.14-7.52,1.15-1.75,3.39-1.44,6.87-.1,10.28Z"/><path class="cls-6" d="M190.59,243.09c.52,1.87,2.05,3.35,3.9,3.91.06-.5.13-1.05.2-1.7,0-2.19.44-4.81.44-6.99-.1-1.01-.33-1.93-.66-2.75-2.82,1.2-4.72,4.48-3.87,7.53Z"/><path class="cls-6" d="M658.46,59.24c1.88,1.31,4.1.85,5.36-1.06,1.65-2.5.57-5.49-2.45-6.79-.39-.17-.78-.26-1.16-.29-1.22,2.16-2.28,4.38-3.22,6.67.37.55.85,1.05,1.46,1.47Z"/><path class="cls-6" d="M808.06,25.7c-.42.24-.87.45-1.28.7-3.21,1.92-4.08,3.77-3.01,7.34.66,2.2,1.74,4.28,2.7,6.39,1.79,3.95,5.21,5.21,10.65,5.66,1.72.18,3.98-1.4,5.13-3.73v-6.4c-1.11-2.91-2.68-5.46-4.59-7.95-2.55-3.34-5.78-4.22-9.6-2.01Z"/><path class="cls-6" d="M785.84,182.68c2.63.42,4.79-.41,6.3-2.69.2-.3.41-.62.51-.96.55-1.86,1.13-3.71,1.57-5.6.32-1.37-.07-2.71-.94-3.77-.91-1.12-1.9-2.24-3.06-3.09-3.6-2.64-7.68-1.07-8.64,3.29-.28,1.29-.25,2.65-.39,4.21.14,1.35.12,2.97.52,4.47.56,2.08,1.78,3.77,4.11,4.14Z"/><path class="cls-6" d="M772.58,194.55c-1.21-6.14-8.18-9.88-13.85-7.16-4.72,2.27-7.74,5.86-7.43,10.97-.06,3.28.35,5.9,2.59,7.82,1.77,1.52,3.75,2.69,6.03,3.32,5.98,1.64,11.05-1.34,12.51-7.36.61-2.52.64-5.03.14-7.59Z"/><path class="cls-6" d="M617.18,233.84c-.03.48.03.98.12,1.45.1.53.21,1.05.33,1.57.32-3.4.61-6.86.9-10.37-.75,2.38-1.19,4.84-1.36,7.35Z"/><path class="cls-6" d="M793.33,254.06c1.59-1.75,2.07-3.8,1.96-6.04.13-2.99-.86-5.53-2.98-7.59-2.46-2.38-5.28-2.4-7.79-.12-3.1,2.81-4.11,8.83-2.08,12.49,2.51,4.52,7.42,5.07,10.89,1.26Z"/><path class="cls-6" d="M682.36,126.24c2.28-1.31,3.51-3.29,3.61-5.95.12-3.8-1.67-6.49-5.26-7.92-2.45-.98-4.66-.42-6.01,1.83-.79,1.33-1.32,2.88-1.64,4.4-.57,2.74.59,5.03,2.52,6.89,1.8,1.73,4.61,1.99,6.79.74Z"/><path class="cls-6" d="M675.83,88.54c2.28-1.31,3.51-3.29,3.61-5.95.12-3.8-1.67-6.49-5.26-7.92-2.45-.98-4.66-.42-6.01,1.83-.79,1.33-1.32,2.88-1.64,4.4-.57,2.74.59,5.03,2.52,6.89,1.8,1.73,4.61,1.99,6.79.74Z"/><path class="cls-6" d="M775.85,40.54c2.28-1.31,3.51-3.29,3.61-5.95.12-3.8-1.67-6.49-5.26-7.92-2.45-.98-4.66-.42-6.01,1.83-.79,1.33-1.32,2.88-1.64,4.4-.57,2.74.59,5.03,2.52,6.89,1.8,1.73,4.61,1.99,6.79.74Z"/><path class="cls-6" d="M583.45,212.43c-2.75,2.61-4.6,5.69-4.48,9.69-.07,1.95.13,3.87,1.39,5.53,3.19,4.24,10.69,4.87,14.37,1.03,2.36-2.46,3.64-5.52,3.16-9.03-.14-1.05-.52-2.19-1.14-3.03-1.83-2.51-4.21-4.4-7.19-5.44-2.29-.81-4.37-.41-6.11,1.24Z"/><path class="cls-6" d="M597.34,266.44c.29,2.92,2.2,4.59,4.75,5.46,2.51.86,4.87.36,6.56-1.88.95-1.26,1.92-2.56,2.59-3.97,1.09-2.3,1.27-4.79-.02-7.04-1.11-1.92-2.82-3.35-4.95-4.17-2.96-1.13-5.14-.49-7.02,2.13-1.47,2.06-2.11,4.37-1.92,7.7,0,.06-.07.92.01,1.76Z"/><path class="cls-6" d="M611.26,33.66c-1.3.29-7.62,3.81-8.52,4.83-.4.45-.77.95-1.09,1.47-1.02,1.66-2.04,3.32-3.02,5-.88,1.51-1.38,3.15-1.12,4.9.79,5.35,2.35,10.47,4.82,15.29.91,1.78,2.28,3.17,4.17,3.95,1.58.65,3.18,1.26,4.79,1.82,1.42.49,2.93.64,4.32.08.96-.38,1.93-.76,2.88-1.18-.16-11.07-.27-22.06-.3-32.95-1.09-.9-2.23-1.76-3.41-2.56-1.02-.7-2.24-.93-3.51-.65Z"/><path class="cls-6" d="M619.85,161.75c-1.02-.72-2.15-1.31-3.42-1.73-3.8-1.26-6.68.03-8.37,3.7-.88,1.91-1.32,3.92-1.21,6.06-.1,1.96.29,3.87,1.11,5.67,1.99,4.32,7.55,6.43,11.93,4.7v-5.25c0-4.37-.03-8.75-.05-13.14Z"/><path class="cls-6" d="M592.96,157.83c.18,2.28,1.6,3.84,3.82,4.23,1.93.35,3.78-.63,4.67-2.68.52-1.21.75-2.54.95-3.24,0-.98.02-1.35,0-1.71-.14-2.34-1.45-3.91-3.64-4.39-1.93-.42-3.7.49-4.79,2.5-.9,1.65-1.15,3.44-1,5.3Z"/><path class="cls-6" d="M608.53,137.08c.67-1.14,1.16-2.43,1.54-3.7.81-2.71-.61-5.51-3.21-6.57-2.87-1.17-5.47.04-6.31,3.02-.23.81-.25,1.68-.25,1.68-.12,3.22.83,5.11,2.66,6.57,2.01,1.61,4.26,1.25,5.58-.99Z"/><path class="cls-6" d="M765.93,225.62c-2.81-1.67-5.91-.78-7.3,2.18-.45.96-.58,2.07-.7,2.5-.05,3.68,1.64,6.03,4.26,6.61,2.98.66,5.38-.43,6.7-3.03,1.29-2.54.73-5.31-1.48-7.22-.46-.39-.96-.74-1.48-1.05Z"/><path class="cls-6" d="M576.88,181.35c3.4-.26,6.07-1.65,7.97-4.48,2.11-3.14,3.03-6.62,2.89-10.93.36-3.44-.75-6.98-3.43-9.93-2.62-2.88-5.32-5.7-8.03-8.5-1.22-1.26-2.82-1.88-4.48-2.37-4.84-1.43-8.13.95-9.94,4.62-.88,1.77-1.23,3.69-1.23,5.67,0,2.2.11,4.41-.14,6.58-.55,4.74.82,8.91,3.39,12.79,3.09,4.67,7.31,6.98,13,6.55Z"/><path class="cls-6" d="M777.25,15.29c1.59-.01,3.75-1.11,4.63-2.55.23-.37.42-.74.59-1.1-3.83-.26-7.64-.51-11.41-.7,1.09,2.4,3.69,4.37,6.19,4.35Z"/><path class="cls-6" d="M653.08,230.38c.03.35.06.68.12,1,.24,1.42,1.11,2.41,2.36,3.04,1.78.89,3.91.08,4.43-1.81.46-1.69.48-3.37.1-4.97-1.23.04-2.36.13-3.48.42-1.97.57-3.03,1.16-3.54,2.33Z"/><path class="cls-6" d="M812.51,85.82c-.3,1.03-.3,2.15-.43,3.23.05,0,.11,0,.16.01,0,.85-.08,1.71.01,2.55.45,3.96,3.81,5.92,7.45,4.22.98-.46,1.78-1.05,2.44-1.76.22-.53.41-1.1.54-1.69v-4.45c0-1.48.02-2.61.04-3.55-.6-.64-1.32-1.2-2.11-1.71-3.2-2.05-7.06-.53-8.11,3.14Z"/><path class="cls-6" d="M667.26,261.21c2.54-1.83,3.66-4.46,3.96-7.48.12-1.26-.27-2.46-1.19-3.33-2.09-1.98-4.47-3.33-7.51-3.05-2.51.23-4.55,2.05-4.98,4.55-.12.71-.1,1.45-.15,2.18-.19,2.75.78,4.99,2.88,6.77,2.27,1.93,4.57,2.09,6.98.36Z"/><path class="cls-6" d="M686,228.66c.28.9.65,1.79,1.09,2.68.47.95,1.27,1.81,2.1,2.49,2.84,2.34,6,1.99,8.4-.82.74-.87,1.27-1.85,1.63-2.89-4.39-.59-8.8-1.08-13.22-1.47Z"/><path class="cls-6" d="M805.92,70.88c.1-.22.16-.46.24-.69,1.23-3.99.13-7.44-2.46-10.53-.88-1.05-2.01-1.77-3.41-1.96-3.19-.45-7.09,1.93-8.07,5.03-.36,1.15-.46,2.37-.55,2.87-.03,4.21,1.03,6.35,3.71,8.21,2.78,1.93,9.16.17,10.54-2.92Z"/><path class="cls-6" d="M705.4,176.03c.27.52.82.89,1.22,1.35,2.23,2.53,6.64,2.11,8.46-.17.84-1.05,1.78-2.01,2.57-3.09,1.96-2.66,2.73-5.76,2.48-8.96-.19-2.4-.85-4.79-1.52-7.12-.66-2.28-2.04-4.13-4.14-5.36-2.72-1.61-5.86-1.45-8.1.73-2.96,2.88-4.95,6.31-4.92,11.82.19,3.18,1.96,7.03,3.95,10.81Z"/><path class="cls-6" d="M741.03,98.38c-.62-.53-1.48-.93-2.29-1.09-3.46-.68-6.87-.47-9.85,1.58-3.07,2.11-5.37,4.96-6.79,8.44-.7,1.71-1.09,3.52-.58,5.37,2.4,8.58,8.75,14.54,18.94,13.64,1.51-.13,2.82-.68,3.99-1.63.14-.11.27-.22.4-.34-.56-2.66-.86-5.37-.86-8.06,0-1.78,0-3.55.44-5.33.58-2.76,1.47-4.65,2.74-6.13-1.64-2.5-3.86-4.5-6.14-6.45Z"/><path class="cls-6" d="M700.83,27.57c-.98-.6-2.32-.94-3.46-.86-2.28.17-4.6.51-6.79,1.15-2.32.68-4.05,2.39-4.79,4.68-1.12,3.43-1.19,6.94.34,10.33,1.38,3.05,3.8,4.65,7.1,4.93.97.08,1.94.01,2.92.01v.02c.97,0,1.94.01,2.92,0,1.73-.02,2.99-.85,3.89-2.31,1.08-1.76,2.2-3.5,3.29-5.25,1.18-1.89,1.3-3.88.47-5.93-1.18-2.93-3.25-5.14-5.88-6.76Z"/><path class="cls-6" d="M781.87,97.39c.19-2.16-.58-4.42-2.38-6.21-1.01-1-2.17-1.51-3.39-1.47-2.78-.02-5.07,1.76-5.51,4.54-.15.95-.23,1.93-.24,2.91h3.17c2.68,0,5.49.1,8.35.23Z"/><path class="cls-6" d="M751.21,264.27c1.42.87,3.18.68,4.33-.5.97-.99,1.47-2.2,1.49-3.83-.24-2.03-1.04-3.99-3.06-5.24-1.64-1.01-3.34-.62-4.47.93-1.93,2.65-1.08,6.94,1.71,8.64Z"/><path class="cls-6" d="M736.68,141.28c-2.29-.57-4.46.51-5.4,2.69-1.16,2.69-.48,5.71,1.73,7.66,2.6,2.29,5.78,1.83,7.36-1.19.49-.93.55-2.09.65-2.51,0-3.8-1.57-5.96-4.34-6.65Z"/><path class="cls-1" d="M121.7,19.56c8.97,0,17.8.29,27.13.6,10.57.35,21.5.71,34.05.71h.18c.06,14.49.47,30.09.87,45.21.43,16.16.87,32.88.87,48.05,0,4.66.44,9.18.87,13.56v1.05c-.32.24-.67.5-1.04.79-.7.45-1.17.69-1.85,1.03-12.09,6.05-20.06,17.23-27.09,27.09-1.85,2.59-3.59,5.04-5.34,7.3-6.77,8.76-14.28,16.61-22.25,24.91-5.69,5.94-11.57,12.07-17.12,18.54-3.66,4.27-5.35,8.77-6.84,12.75l-.57,1.53v.49c-.22.73-.44,1.73-.44,2.89,0,5.06,2.93,9.43,8.03,11.98l.34.17.35.14c2.37.95,5.55,2.22,9.54,2.38,11.52,1.76,25.62,1.76,39.26,1.76,8,0,13.2-.61,18.71-1.26,2.08-.25,4.22-.5,6.61-.73-.01.16-.03.32-.04.48-.11,1.16-.22,2.46-.25,3.78-.18,1.67-.31,2.38-.37,2.64-.81,1.86-1.28,3.6-1.77,8.26l-.02.15v.15c-.45,6.1-.9,12.41-.91,18.78-.43,9.06-.87,18.43-.87,27.75v5.68c0,2,.21,5.14.44,8.46.18,2.65.38,5.6.43,7.45h-.6c-15.47,0-27.45-.11-39.03-.22-11.62-.11-23.64-.22-39.2-.22-2.12,0-3.71.13-5.12.25-1.21.1-2.25.19-3.62.19h-.41l-.41.04c-2.28.21-3.91.31-5.65.42-1.69.11-3.44.21-5.77.42-1.56.02-2.83.15-3.96.26-.97.1-1.74.17-2.6.17h-.44c-5.13,0-9.48-.22-13.69-.44-4.16-.21-8.47-.43-13.4-.43-3.92,0-7.63,0-11.84.44h-.44c-2.28-.2-4.22-.5-6.27-.82-2.04-.31-4.15-.64-6.62-.87.28-3.2.5-6.58.52-9.84.21-2.23.32-4.3.43-6.31.11-2.03.21-3.94.4-5.91l.02-.16v-.16c.45-6.78.89-13.68,1.32-20.57.44-6.85.87-13.71,1.31-20.45.23-2.99.34-5.95.45-8.81.11-2.83.21-5.51.42-8.18l.03-.34v-.35c0-3.85.39-7.81.81-11.99.14-.85.4-1.35.99-1.89,10.76-7.65,19.02-18.43,27.01-28.86,4.54-5.92,8.83-11.52,13.37-16.31,14.08-14.83,27.57-31.24,40.1-48.78,3.09-4.32,4.29-8.54,5.26-11.94l.35-1.21v-3.01c0-6.05-2.64-10.96-7.43-13.84l-.08-.05-.08-.05c-3.41-1.95-7.66-4.38-12.92-5.04l-2.27-.3c-5.76-.77-11.21-1.51-16.81-1.92-3.96-.48-7.72-.48-11.36-.48h-.46s-17.04.89-17.04.89h-.05s-.05,0-.05,0c-7.13.45-7.95.59-14.66,2.57l-.82.24c-.29.01-.75.01-1.11.01-1.19,0-2.61,0-4.17.22h-.3c-.2-.08-.61-.27-1.33-.75v-.07l-.09-.63c-.13-.9-.13-2.02-.13-3.32,0-1.55,0-3.27-.22-5.16,0-14.38-.34-25.02-.67-35.31-.31-9.96-.61-19.4-.64-32.06.46.03.92.06,1.39.09,1.64.11,3.34.23,5.34.23h3.1c4.31-.24,8.17-.58,11.9-.91,3.74-.33,7.27-.64,11.29-.85,11.19-.62,18.63-.79,28.05-1.01,3.62-.08,7.49-.17,11.91-.29h.1s.1,0,.1,0l1.25-.06c8.21-.41,15.97-.8,23.65-.8M121.7,10.56c-8.3,0-16.61.44-25.35.87-15.73.44-24.47.44-40.21,1.31-8.3.44-14.86,1.31-23.16,1.75h-2.62c-3.5,0-6.12-.44-10.05-.44h-.44c-1.31,0-3.06.44-3.93,1.31s-1.31,3.5-1.31,5.68c0,27.97,1.31,41.21,1.31,70.06.44,3.06,0,6.12.44,9.18,0,1.75.44,3.93,1.75,5.24,2.19,1.75,5.24,3.93,8.3,3.93h1.31c2.19-.44,4.81,0,6.56-.44,7.43-2.19,7.04-2.19,14.04-2.62l17.04-.87c3.5,0,6.99,0,10.49.44,6.12.44,12.24,1.31,18.79,2.19,3.5.44,6.56,2.19,9.61,3.93,2.19,1.31,3.06,3.5,3.06,6.12v1.75c-.87,3.06-1.75,6.12-3.93,9.18-11.97,16.76-25.11,32.87-39.3,47.81-13.12,13.82-23.79,33.32-39.41,44.26-2.63,2.19-3.94,4.81-4.38,7.87-.44,4.37-.87,8.74-.87,13.11-.44,5.68-.44,11.36-.87,17.04-.87,13.55-1.75,27.53-2.62,41.08-.44,4.37-.44,8.3-.87,12.67,0,4.37-.44,9.18-.87,13.55v.87c0,2.62,1.75,3.93,4.37,3.93,1.31.44,2.62.87,3.93.87,4.81.44,8.3,1.31,13.55,1.75h1.31c3.93-.44,7.43-.44,11.36-.44,9.61,0,16.61.87,27.1.87h.44c2.62,0,4.37-.44,6.99-.44,4.81-.44,6.99-.44,11.8-.87,3.5,0,5.24-.44,8.74-.44,31.03,0,47.2.44,78.23.44h2.19c2.19-.44,3.5-.87,4.81-2.19,1.31-1.75,2.62-3.5,2.62-6.12,0-3.93-.87-13.11-.87-16.61v-5.68c0-9.18.44-18.36.87-27.53,0-6.12.44-12.24.87-18.36.87-8.3,1.31-3.01,2.19-11.31,0-2.19.44-4.81.44-6.99-.44-4.37-3.06-6.99-7.43-6.99-10.49.87-15.67,2.19-27.03,2.19-13.55,0-27.53,0-38.46-1.75-2.62,0-4.81-.87-6.99-1.75-1.75-.87-3.06-2.19-3.06-3.93,0-.44.44-.87.44-1.75,1.31-3.5,2.62-6.99,5.24-10.05,12.85-15,27.51-28.09,39.65-43.81,8.47-10.96,16.41-25.38,29.33-31.84.87-.44,1.75-.87,3.06-1.75,3.93-3.06,4.81-3.06,4.81-5.24v-4.37c-.44-4.37-.87-8.74-.87-13.11,0-30.59-1.75-65.99-1.75-96.58,0-3.06-1.75-5.24-5.24-5.68h-3.93c-23.6,0-41.95-1.31-61.18-1.31h0Z"/><path class="cls-4" d="M236.23,19.59c3.29.06,6.52.21,9.89.37,5,.23,10.17.47,16.3.47,3.78,0,6.78.1,9.96.21,3.16.11,6.42.22,10.45.22,6.18.18,11.08.53,15.81.86,6.54.46,12.72.89,21.47.89,4.93,0,7.4,0,12.61-.47,2.25-.2,4.08-.31,6.02-.41,2-.11,4.07-.23,6.62-.46,4.79-.4,13.35-.84,18.01-.84,2.34,0,4.23.1,6.24.2,1.76.09,3.56.18,5.74.22v2.5l.07.56c.15,1.19.15,2.08.15,3.2,0,1.37,0,3.06.3,5.2.33,3.1.76,27.33.79,32.85-9.99,1.09-25.21,1.09-36.45,1.09h-14.86c-11.29,0-13.5,6.61-14.22,8.78-1.78,5.34-2.65,12.56-2.65,22.08v24.04c0,2.77,0,5.39.9,8.09,1.6,4.8,6.15,7.9,11.6,7.9,3.71,0,7.53.1,11.56.21,4.3.11,8.74.23,13.35.23,8.18,0,16.19-.45,23.81-1.33.46-.02.89-.06,1.28-.11v9.48c0,6.67-.14,8.78-.31,11.46-.26,4.03-.56,8.61-.56,27.43v10.58c-4.86.32-9.26.58-14.16.58h-5.24c-5.14,0-9.86-.11-14.43-.22-4.67-.11-9.5-.22-14.85-.22h-7.73l-1.17,7.64c-.13.85-3.16,20.88-3.16,34.95,0,4.21,2.59,7.81,6.75,9.39,1.38.52,2.69.75,3.65.92.14.02.27.05.4.07l.2.07.49.1c6.2,1.33,12.77,1.95,20.68,1.95,6.04,0,12.56-.35,18.88-.69,5.7-.31,11.09-.59,15.83-.62.01,10.68.12,21.53.22,32.06.11,11.12.22,22.63.22,33.67v6.14c-.95.09-2.27.15-4.11.15h-3.06c-16.92,0-33.64.33-49.81.64-16.7.33-33.97.67-52.02.67-6.5,0-13.21,0-19.96.44h-10.81v-8.71c.44-9.32.44-18.91.44-28.18,0-31.11-.41-62.74-.85-96.23-.44-33.92-.9-69-.9-103.93v-27.53c0-4.65.1-9.36.21-14.33.11-5.02.22-10.21.22-15.39v-5.68c0-1.19.06-2.22.21-3.21M233.14,10.56h-.87c-1.75,0-2.62.87-3.5,2.19-1.31,3.5-1.75,6.56-1.75,10.05v5.68c0,10.05-.44,20.1-.44,29.72v27.53c0,68.61,1.75,136.79,1.75,200.16,0,9.18,0,18.79-.44,27.97v10.49c0,3.5,1.75,5.68,4.37,6.99,1.31.44,3.06.44,4.37.44h11.36c6.56-.44,13.11-.44,19.67-.44,35.84,0,67.74-1.31,101.83-1.31h3.06c5.68,0,13.11-.44,13.11-5.68v-9.61c0-22.29-.44-45.45-.44-68.18,0-6.56-3.5-6.56-7.43-6.56h-.87c-10.49,0-24.04,1.31-35.4,1.31-6.56,0-12.67-.44-18.79-1.75-1.31-.44-4.37-.44-4.37-1.75,0-13.55,3.06-33.59,3.06-33.59,10.49,0,18.79.44,29.28.44h5.24c6.56,0,12.24-.44,18.79-.87.87,0,2.62-.44,3.5-.44.87-.87.87-2.19.87-3.5v-15.36c0-31.9.87-22.29.87-38.9v-10.05c0-2.62,0-5.68-2.62-7.43-.87-.87-2.62-1.31-3.93-1.31h-.87c-1.31,0-2.19.44-3.5.44-7.43.87-15.3,1.31-23.16,1.31-8.74,0-17.04-.44-24.91-.44-1.31,0-2.62-.44-3.06-1.75-.44-1.31-.44-3.06-.44-5.24v-24.04c0-6.56.44-13.98,2.19-19.23.87-2.62,3.06-2.62,5.68-2.62h14.86c12.24,0,28.41,0,38.9-1.31,5.24-.87,6.56-3.06,6.56-8.3,0-3.06-.44-31.47-.87-34.53-.44-3.06,0-4.81-.44-8.3v-4.81c0-.87,0-1.31-.44-2.19-1.75-2.62-3.93-3.93-6.56-3.93-5.68,0-8.74-.44-13.98-.44-4.81,0-13.55.44-18.79.87-4.81.44-7.87.44-12.67.87-4.81.44-6.99.44-11.8.44-14.86,0-22.29-1.31-37.15-1.75-7.87,0-12.67-.44-20.54-.44-11.36,0-19.67-.87-29.28-.87h0Z"/><path class="cls-3" d="M479.18,24.37c2.76,0,4.89.37,6.67,1.18.04.24.06.51.06.75v2.82c-2.32,43.84-2.62,89.01-2.62,123.48,0,1.86-.03,3.99-.07,6.24-.27,18.04-.69,45.3,12.88,59.08,5.4,5.48,12.58,8.37,20.76,8.37.29,0,.59,0,.89-.01h2.44l.38-.03c11.45-.96,19.87-6.8,24.36-16.89,3.39-7.62,4.06-16.4,4.65-24.15.32-4.15.61-8.08,1.28-10.83l.02-.08.02-.08c3.97-17.85,5.89-38.79,5.89-64.01,0-13.67-.56-27.84-1.09-41.54-.49-12.63-1.01-25.65-1.08-38.3,2.75.12,5.64.12,8.47.12,4.21,0,8.68-.11,13-.22,4.38-.11,8.91-.22,13.22-.22h3.93c6.17,0,12.01,0,15.91,1.02v.03c0,23.3.44,47.58.87,71.06.43,23.89.88,48.6.88,72.72v22.73c0,6.98-.4,14.44-.85,22.11-4.48,57.24-10,92.85-48.73,104.76l-.1.03-.1.03c-13.33,4.44-30.29,6.52-53.35,6.53-21.34-.88-35.21-3.83-44.94-9.57-9.8-5.78-16.41-15.08-21.44-30.17-.34-1.01-.66-1.99-.99-2.95-3.45-10.27-5.94-17.69-7.82-30.88l-.03-.18-.03-.18c-3.55-19.34-5.5-40.42-5.97-64.45v-13.03c0-21.14.55-43.32,1.08-64.78.54-22.05,1.11-44.86,1.11-67.21,0-7.47.33-13.58.71-20.66l.12-2.24h.66c4.65.44,9.17.44,13.55.44,6.18,0,12.54-.23,18.7-.46,5.92-.22,11.5-.42,16.7-.42M479.18,15.37c-10.93,0-23.6.87-35.4.87-4.37,0-8.74,0-13.11-.44h-5.24c-1.75,0-3.06.87-3.93,2.62-.87,1.31-.87,2.62-.87,4.37v.87c-.44,8.3-.87,15.3-.87,24.04,0,44.14-2.18,89.15-2.18,131.98v13.11c.44,22.73,2.18,44.58,6.12,65.99,2.19,15.3,5.24,23.6,9.18,35.4,11.36,34.09,31.47,44.14,74.73,45.89,21.41,0,40.64-1.75,56.38-6.99,45.45-13.98,50.69-56.81,55.07-112.75.44-7.43.87-15.3.87-22.73v-22.73c0-48.07-1.75-97.02-1.75-143.78v-1.75c0-4.81-1.75-4.81-5.25-6.56-5.24-1.75-12.24-1.75-19.67-1.75h-3.93c-8.74,0-17.92.44-26.22.44-4.37,0-8.74,0-12.24-.44-3.5,0-5.24,2.19-5.24,5.68v.44c0,27.53,2.18,55.94,2.18,83.04,0,20.98-1.31,42.39-5.68,62.06-3.5,14.42,1.93,42.99-22.29,45.02h-2.19c-.26,0-.52.01-.77.01-28.2,0-24.58-44.34-24.58-64.69,0-38.9.44-82.16,2.62-123.24v-3.06c0-2.62-.87-6.12-2.62-7.43-3.93-2.62-8.3-3.5-13.11-3.5h0Z"/><path class="cls-2" d="M758,19.56c8.7,0,18.35.67,27.68,1.32,9.22.64,18.75,1.31,27.56,1.34v23.92c0,4.86,0,8.7.45,16.95v.19s.03.19.03.19c.39,4.01.39,5.83.39,10.24,0,3.75-.1,5.2-.2,6.73-.12,1.69-.23,3.45-.23,7.48v2.12c-6.27-.05-13.04-.51-19.59-.95-6.9-.46-14.04-.94-20.57-.94h-3.93c-6.88,0-13.17,1.25-19.25,3.83l-.29.12-.28.14c-6.47,3.29-11.99,6.82-14.12,16.71-.66,2.77-.66,5.29-.66,7.32,0,12.54,5.12,25.02,13.69,33.38,8.4,8.19,19.37,10.99,28.18,13.24,14.04,3.58,26.22,9.62,29.62,14.68,8.4,12.52,13.59,30.02,14.62,49.29.99,18.48-2.05,37.02-8.34,50.87-1.22,2.69-2.92,5.35-4.71,8.17-1.56,2.44-3.17,4.97-4.66,7.8l-.24.45-.11.28c-.24.34-.88,1.05-1.35,1.57-.62.68-1.32,1.45-2.03,2.33-4.33,4.82-8.39,8.34-12.76,11.08l-.9.56-.15.15c-.12.06-.24.13-.36.18-12.81,6.17-29.3,12.78-54.49,15.11-.91.07-2.95.16-7.55.16-3.95,0-8.5-.06-12.5-.12-3.09-.04-5.76-.08-7.59-.08h-2.62c-5.62,0-13.2-.37-20.53-.73-6.44-.31-12.53-.61-16.62-.61-.57,0-1.49-.41-2.79-1.26,0-.09,0-.18,0-.29.07-2.07.14-4.07.21-6.02.36-10.16.66-18.93.66-28.37,0-7.3.23-12.06.44-16.66.21-4.48.43-9.12.43-15.85,0-6.17-.36-12.67-.74-19.02.16,0,.32,0,.48,0,14.73,0,29.95,1.3,45.24,3.85,5.47.91,11.37,1.76,17.37,1.76,11.69,0,20.88-3.39,27.3-10.09,4.16-4.34,6.23-9.54,5.98-15.03-.34-7.46-4.85-14.85-13.77-22.58-9.16-7.94-18.31-15.44-29.49-19.9-17.36-6.93-28.94-15.49-38.69-28.62-14.43-19.42-16.53-42.98-15.75-59.32,1.11-23.31,7.28-36.14,23.57-49.04,13.89-10.99,31.08-14.64,56.09-17.23l.18-.02.18-.03c5.48-.8,11.59-.8,17.5-.8M758,10.56c-6.12,0-12.67,0-18.79.89-25.78,2.67-45.01,6.67-60.75,19.13-19.17,15.18-25.81,31.21-26.98,55.67-1.1,22.9,3.72,46.56,17.51,65.12,11.46,15.41,25.17,24.66,42.58,31.61,10.12,4.04,18.73,11.23,26.93,18.34,7.03,6.09,15.63,15.79,7.2,24.58-5.43,5.67-13.05,7.32-20.8,7.32-5.47,0-11-.82-15.88-1.64-15.39-2.57-31.1-3.97-46.73-3.97-2.19,0-3.93,0-5.68.44-3.06.89-3.93,1.78-3.93,4.89v1.78c.44,7.12.87,14.23.87,20.91,0,13.34-.87,17.82-.87,32.5,0,11.12-.44,21.35-.87,34.25,0,3.56.87,5.78,3.5,7.56,2.62,1.78,5.25,3.11,8.3,3.11,8.3,0,26.22,1.33,37.15,1.33h2.62c4.08,0,13.03.2,20.09.2,3.53,0,6.59-.05,8.34-.2,24.04-2.22,41.08-8.01,57.69-16.01.87-.44,1.75-.89,2.19-1.33,5.68-3.56,10.49-8.01,14.86-12.9,1.75-2.22,3.93-4,4.81-6.23,3.06-5.78,6.99-10.68,9.62-16.46,14.03-30.94,12.64-79.6-7.01-108.88-6.31-9.41-24.51-15.75-34.87-18.39-8.61-2.2-17.52-4.53-24.12-10.96-7.07-6.89-10.98-17.03-10.98-26.94,0-1.78,0-3.55.44-5.33,1.31-6.23,4.18-8.01,9.42-10.68,5.24-2.22,10.49-3.11,15.73-3.11h3.93c12.67,0,27.75,1.9,41.3,1.9,3.93,0,6.99-2.67,7.87-6.67v-4.45c0-7.56.44-6.2.44-14.21,0-4.45,0-6.67-.44-11.12-.44-8.01-.44-11.57-.44-16.46v-26.24c-.87-4.89-3.06-6.67-8.3-6.67-17.48,0-38.02-2.67-55.94-2.67h0Z"/><path class="cls-22" d="M19.87,14.06h.44c3.93,0,6.56.44,10.05.44h2.62c8.3-.44,14.86-1.31,23.16-1.75,15.73-.87,24.47-.87,40.21-1.31,8.74-.44,17.04-.87,25.35-.87,19.23,0,37.58,1.31,61.18,1.31h3.93c3.5.44,5.24,2.62,5.24,5.68,0,30.59,1.75,65.99,1.75,96.58,0,4.37.44,8.74.87,13.11v4.37c0,2.19-.87,2.19-4.81,5.24-1.31.87-2.18,1.31-3.06,1.75-12.92,6.46-20.87,20.88-29.33,31.84-12.15,15.72-26.8,28.82-39.65,43.81-2.62,3.06-3.93,6.56-5.24,10.05,0,.87-.44,1.31-.44,1.75,0,1.75,1.31,3.06,3.06,3.93,2.19.87,4.37,1.75,6.99,1.75,10.93,1.75,24.91,1.75,38.46,1.75,11.36,0,16.54-1.31,27.03-2.19,4.37,0,6.99,2.62,7.43,6.99,0,2.19-.44,4.81-.44,6.99-.87,8.3-1.31,3.01-2.19,11.31-.44,6.12-.87,12.24-.87,18.36-.44,9.18-.87,18.35-.87,27.53v5.68c0,3.5.87,12.67.87,16.61,0,2.62-1.31,4.37-2.62,6.12-1.31,1.31-2.62,1.75-4.81,2.19h-2.19c-31.03,0-47.2-.44-78.23-.44-3.5,0-5.24.44-8.74.44-4.81.44-6.99.44-11.8.87-2.62,0-4.37.44-6.99.44h-.44c-10.49,0-17.48-.87-27.1-.87-3.93,0-7.43,0-11.36.44h-1.31c-5.24-.44-8.74-1.31-13.55-1.75-1.31,0-2.62-.44-3.93-.87-2.62,0-4.37-1.31-4.37-3.93v-.87c.44-4.37.87-9.18.87-13.55.44-4.37.44-8.3.87-12.67.87-13.55,1.75-27.53,2.62-41.08.44-5.68.44-11.36.87-17.04,0-4.37.44-8.74.87-13.11.44-3.06,1.75-5.68,4.38-7.87,15.62-10.94,26.29-30.45,39.41-44.26,14.19-14.94,27.33-31.05,39.3-47.81,2.19-3.06,3.06-6.12,3.93-9.18v-1.75c0-2.62-.87-4.81-3.06-6.12-3.06-1.75-6.12-3.5-9.61-3.93-6.56-.87-12.67-1.75-18.79-2.19-3.5-.44-6.99-.44-10.49-.44l-17.04.87c-6.99.44-6.61.44-14.04,2.62-1.75.44-4.37,0-6.56.44h-1.31c-3.06,0-6.12-2.19-8.3-3.93-1.31-1.31-1.75-3.5-1.75-5.24-.44-3.06,0-6.12-.44-9.18,0-28.84-1.31-42.09-1.31-70.06,0-2.19.44-4.81,1.31-5.68s2.62-1.31,3.93-1.31Z"/><path class="cls-22" d="M374.74,203.79c-6.56.44-12.24.87-18.79.87h-5.24c-10.49,0-18.79-.44-29.28-.44,0,0-3.06,20.04-3.06,33.59,0,1.31,3.06,1.31,4.37,1.75,6.12,1.31,12.24,1.75,18.79,1.75,11.36,0,24.91-1.31,35.4-1.31h.87c3.93,0,7.43,0,7.43,6.56,0,22.73.44,45.89.44,68.18v9.61c0,5.24-7.43,5.68-13.11,5.68h-3.06c-34.09,0-65.99,1.31-101.83,1.31-6.56,0-13.11,0-19.67.44h-11.36c-1.31,0-3.06,0-4.37-.44-2.62-1.31-4.37-3.5-4.37-6.99v-10.49c.44-9.18.44-18.79.44-27.97,0-63.37-1.75-131.55-1.75-200.16v-27.53c0-9.61.44-19.67.44-29.72v-5.68c0-3.5.44-6.56,1.75-10.05.87-1.31,1.75-2.19,3.5-2.19h.87c9.61,0,17.92.87,29.28.87,7.87,0,12.67.44,20.54.44,14.86.44,22.29,1.75,37.15,1.75,4.81,0,6.99,0,11.8-.44,4.81-.44,7.87-.44,12.67-.87,5.24-.44,13.98-.87,18.79-.87,5.24,0,8.3.44,13.98.44,2.62,0,4.81,1.31,6.56,3.93.44.87.44,1.31.44,2.19v4.81c.44,3.5,0,5.24.44,8.3.44,3.06.87,31.47.87,34.53,0,5.24-1.31,7.43-6.56,8.3-10.49,1.31-26.66,1.31-38.9,1.31h-14.86c-2.62,0-4.81,0-5.68,2.62-1.75,5.24-2.19,12.67-2.19,19.23v24.04c0,2.19,0,3.93.44,5.24s1.75,1.75,3.06,1.75c7.87,0,16.17.44,24.91.44,7.87,0,15.73-.44,23.16-1.31,1.31,0,2.19-.44,3.5-.44h.87c1.31,0,3.06.44,3.93,1.31,2.62,1.75,2.62,4.81,2.62,7.43v10.05c0,16.61-.87,6.99-.87,38.9v15.36c0,1.31,0,2.62-.87,3.5-.87,0-2.62.44-3.5.44Z"/><path class="cls-22" d="M619.9,197.61c0,7.43-.44,15.3-.87,22.73-4.37,55.94-9.62,98.77-55.07,112.75-15.73,5.24-34.96,6.99-56.38,6.99-43.27-1.75-63.37-11.8-74.73-45.89-3.93-11.8-6.99-20.1-9.18-35.4-3.93-21.41-5.68-43.27-6.12-65.99v-13.11c0-42.83,2.18-87.84,2.18-131.98,0-8.74.44-15.73.87-24.04v-.87c0-1.75,0-3.06.87-4.37.88-1.75,2.19-2.62,3.93-2.62h5.24c4.37.44,8.74.44,13.11.44,11.8,0,24.47-.87,35.4-.87,4.81,0,9.18.87,13.11,3.5,1.75,1.31,2.62,4.81,2.62,7.43v3.06c-2.18,41.08-2.62,84.35-2.62,123.24,0,20.54-3.7,65.5,25.35,64.68h2.19c24.22-2.03,18.79-30.59,22.29-45.02,4.37-19.67,5.68-41.08,5.68-62.06,0-27.1-2.18-55.5-2.18-83.04v-.44c0-3.5,1.75-5.68,5.24-5.68,3.5.44,7.87.44,12.24.44,8.3,0,17.48-.44,26.22-.44h3.93c7.43,0,14.42,0,19.67,1.75,3.5,1.75,5.25,1.75,5.25,6.56v1.75c0,46.76,1.75,95.71,1.75,143.78v22.73Z"/><path class="cls-22" d="M769.59,97.16c-5.25,0-10.49.89-15.73,3.11-5.24,2.67-8.11,4.46-9.42,10.68-.44,1.78-.44,3.55-.44,5.33,0,9.91,3.91,20.05,10.98,26.94,6.6,6.43,15.52,8.77,24.12,10.96,10.35,2.64,28.55,8.98,34.87,18.39,19.64,29.28,21.04,77.94,7.01,108.88-2.62,5.78-6.56,10.68-9.62,16.46-.87,2.22-3.06,4-4.81,6.23-4.37,4.89-9.18,9.34-14.86,12.9-.44.44-1.31.89-2.19,1.33-16.61,8.01-33.65,13.79-57.69,16.01-5.24.44-22.32,0-28.43,0h-2.62c-10.93,0-28.84-1.33-37.15-1.33-3.06,0-5.68-1.33-8.3-3.11-2.62-1.78-3.5-4-3.5-7.56.44-12.9.87-23.13.87-34.25,0-14.68.87-19.16.87-32.5,0-6.67-.44-13.79-.87-20.91v-1.78c0-3.11.87-4,3.93-4.89,1.75-.44,3.5-.44,5.68-.44,15.62,0,31.34,1.4,46.73,3.97,11.81,1.97,27.42,3.98,36.69-5.68,8.43-8.79-.17-18.49-7.2-24.58-8.2-7.11-16.82-14.3-26.93-18.34-17.41-6.95-31.12-16.2-42.58-31.61-13.79-18.56-18.61-42.22-17.51-65.12,1.17-24.46,7.81-40.49,26.98-55.67,15.73-12.46,34.96-16.46,60.75-19.13,6.12-.89,12.67-.89,18.79-.89,17.92,0,38.46,2.67,55.94,2.67,5.24,0,7.43,1.78,8.3,6.67v26.24c0,4.89,0,8.45.44,16.46.44,4.45.44,6.67.44,11.12,0,8.01-.44,6.65-.44,14.21v4.45c-.87,4-3.93,6.67-7.87,6.67-13.55,0-28.62-1.9-41.3-1.9h-3.93Z"/><path class="cls-5" d="M788.73,265.78c-15.44,4.09-19.33,10.42-19.15,20.99.11,6.35,4.61,16.85,17.81,20.53-16.75-17.7-3.38-37.11,1.34-41.52Z"/><path class="cls-23" d="M833.3,302.66c-9.37-21.63-31.42-32.9-49.24-25.18-1.11.48-2.19,1.03-3.21,1.63-6.02,3.48-5.57,10.09-4.04,12.99,1.62,3.07,6.51,6.9,11.85,3.88.86-.59,1.77-1.12,2.75-1.55,10.11-4.38,20.86,2.84,26.18,15.11,5.32,12.27,1.65,25.42-8.46,29.8-3.61,1.57-12.4,1.29-13.63-2.21-5.04,2.13-13.39,5.08-19.67,7.16,12.55,14.93,30.18,16.71,42.17,11.52,17.83-7.72,24.68-31.52,15.31-53.15Z"/><path class="cls-5" d="M70.92,398.1h4.39c.85,0,1.71,0,2.44-.12,2.68,0,5.25-.12,7.93-.12h.24c.61,0,.98.36,1.22.83,0,.12,0,.24.12.36.12.24.24.47.24.71,0,.36-.12.71-.37,1.07-1.22,2.01-2.2,4.15-3.05,6.4-1.46,3.79-3.29,7.23-4.76,10.9-.73,1.78-1.46,3.44-2.2,4.98-2.07,3.2-3.78,6.04-5.37,9.72-.24.36-.37.83-.61,1.18-1.59,2.49-2.56,5.09-3.9,7.58-.73,1.18-1.22,2.37-1.71,3.55-1.1,2.49-2.2,4.86-3.29,7.35l-2.2,4.98c-2.32,4.38-3.9,8.89-6.22,13.27-.73,2.01-1.71,4.26-2.56,6.28-.73,1.66-1.1,3.67-3.05,4.74-1.46.83-2.68,1.07-3.9,1.07-.98,0-1.95-.24-3.17-.24-1.46,0-2.93-.12-4.39-.12-2.07,0-4.03.36-6.1.36l-2.44-.24c-1.22-.24-1.95-1.07-1.95-2.13,0-.59.12-1.18.49-1.54,1.1-1.42,1.34-3.44,2.2-4.86,0-.12.12-.24.12-.36,1.1-2.73,2.32-5.57,3.66-8.18,2.32-4.5,4.52-9,6.71-13.63,2.81-5.45,5.12-10.9,7.93-16.35.49-1.3,1.1-2.49,1.83-3.67,1.71-2.61,2.81-5.45,4.15-8.18.49-1.18,1.22-2.25,1.83-3.32.73-1.54,1.46-3.2,2.2-4.86,1.1-2.73,2.07-5.69,3.54-8.41l1.83-2.84c1.1-1.9,2.32-3.79,3.42-5.69.24-.36.73-.59,1.1-.59h.24c1.1,0,2.32.12,3.42.12Z"/><path class="cls-5" d="M136.45,484c-1.1.12-2.2.12-3.17.12-1.46-.12-2.93-.12-4.39-.12-17.57,0-22.94-12.32-24.4-28.44-.24-1.78-.37-3.67-.37-5.45v-3.44c0-11.61,1.46-22.39,3.9-31.64.73-2.84,2.07-5.69,3.54-8.29,4.39-7.58,10.01-11.26,21.48-12.08,1.34-.12,2.68-.24,4.03-.24,10.01,0,19.4,4.15,22.57,10.43,2.44,5.21,3.9,9.83,4.51,16.83,0,.71.12,1.42.12,2.13.37,5.09.49,10.9.49,16.59v1.78c0,13.39-.12,25.83-6.59,33.18-4.64,5.45-12.08,8.65-21.72,8.65ZM137.55,415.16c-.61-.59-1.34-.95-2.32-.95h-.12c-1.95.24-4.15,1.9-5.49,6.16-.49,1.66-.85,3.44-.98,5.21-.49,2.61-.24,5.57-.61,8.29-.12,2.84-.24,2.01-.24,3.91v1.3c0,1.3.12,2.37.12,3.67.12,4.03.12,4.15.61,7.94.24,2.96,2.44,12.2,6.22,12.2,5.98,0,6.59-7.94,6.83-13.27.37-4.15.61-3.79.61-8.77v-7.94c-.12-3.32-1.34-14.57-4.64-17.77Z"/><path class="cls-5" d="M222.85,482.93h-1.71c-2.07,0-10.37-.12-13.54-.12-.98,0-1.59-.24-1.95-.95-.49-1.42-1.46-5.69-2.07-7.23-1.71-3.79-2.93-7.94-4.64-11.73-.24-.47-.49-.95-.49-1.42-2.2-4.86-3.29-10.07-5.12-15.28-2.44-7.23-1.83-6.99-2.2-7.46h-.24c-.24,0-.37,1.18-.37,2.84s.12,3.67.12,4.98c-.12,6.04-.37,9.48-.49,15.52v7.94c0,2.13-.12,4.38-.12,6.63-.12,1.66.24,6.16-1.46,6.16h-.37c-2.07,0-3.54-.12-4.76-.12-1.71,0-2.93.12-4.15.12-1.34,0-2.81-.12-5.25-.24-.24,0-.49-.12-.85-.12h-.49c-.98,0-2.07-.83-2.07-1.78v-12.08c0-23.46.24-38.75.49-61.73v-3.79c0-1.18,0-2.25.24-3.44v-1.78c0-.83.24-1.19.98-1.54l1.95-.36c1.46-.12,3.17-.24,4.64-.24,3.17,0,5.74.83,8.54.83,1.22,0,1.83.83,2.32,1.9,8.91,20.97,12.81,33.18,21.48,54.27.12.12.12.24.12.24.12,0,.12-.12.12-.24,0-.36-.24-1.42-.24-2.25,0-11.26-.24-21.09-.24-32.46,0-4.15-.12-8.18-.12-12.2,0-2.37.24-4.86.24-7.23,0-.71.37-1.54,1.22-1.54,3.29,0,5.25.12,6.22.12h7.57c.85.12,1.22.71,1.22,1.42v82.35c0,1.78-2.44,2.01-4.52,2.01Z"/><path class="cls-5" d="M292.89,421.56c-1.46,0-2.93.24-4.39.83-1.46.71-2.44,1.9-2.81,3.55-.12.47-.12.95-.12,1.42,0,1.66.73,3.08,1.83,4.38.85.95,1.95,1.9,2.93,2.84,1.71,1.9,5.98,3.2,7.81,4.86,1.95,1.66,3.66,3.44,5.49,5.21,1.83,1.9,2.68,4.27,3.29,6.64.49,1.9.73,3.67.73,5.57,0,1.18-.12,2.49-.37,3.67-.24,2.96-1.59,5.45-2.56,7.94-.73,1.54-1.83,2.84-2.68,4.38-.24.59-.85,1.07-1.34,1.66-1.22,1.3-2.56,2.49-4.15,3.44-.12.12-.37.24-.61.36-4.64,2.13-9.4,3.67-16.11,4.26-1.46.12-3.78.24-5.49.24h-.73c-3.05,0-8.05-.36-10.37-.36-.85,0-1.59-.36-2.32-.83-.73-.47-.98-1.07-.98-2.01.12-3.44.24-6.16.24-9.12,0-3.91.24-7.46.24-11.02,0-1.78-.12-3.67-.24-5.57v-.47c0-.83.24-1.07,1.1-1.3.49-.12.98-.12,1.59-.12,2.07,0,4.15.12,6.1.12,1.59,0,3.17-.12,4.39-.47,2.93-.83,5.61-2.13,7.57-4.5.98-1.18,1.46-2.61,1.46-3.91,0-1.42-.61-2.84-1.71-3.79-.85-.95-1.59-1.9-2.44-2.84-1.34-1.3-3.42-2.49-5-3.55-1.22-.71-2.32-1.54-3.29-2.37-1.46-1.3-2.93-2.73-4.27-4.15-1.83-2.01-2.93-4.03-4.27-6.87-.85-2.01-1.1-3.32-1.22-5.45v-.71c0-5.69,3.78-9.12,7.2-11.61,4.39-3.32,9.76-4.38,16.96-5.09,1.71-.24,3.54-.24,5.25-.24,5,0,10.74.71,15.62.71,1.46,0,2.07.47,2.32,1.78v6.99c0,1.3,0,2.25.12,4.38.12,1.18.12,1.78.12,2.96,0,2.13-.12,3.55-.12,5.57v1.18c-.24,1.07-1.1,1.78-2.2,1.78-3.78,0-7.93-.36-11.47-.36h-1.1Z"/><path class="cls-5" d="M344.38,484c-1.1.12-2.2.12-3.17.12-1.46-.12-2.93-.12-4.39-.12-17.57,0-22.94-12.32-24.4-28.44-.24-1.78-.37-3.67-.37-5.45v-3.44c0-11.61,1.46-22.39,3.9-31.64.73-2.84,2.07-5.69,3.54-8.29,4.39-7.58,10.01-11.26,21.48-12.08,1.34-.12,2.68-.24,4.03-.24,10.01,0,19.4,4.15,22.57,10.43,2.44,5.21,3.9,9.83,4.51,16.83,0,.71.12,1.42.12,2.13.37,5.09.49,10.9.49,16.59v1.78c0,13.39-.12,25.83-6.59,33.18-4.64,5.45-12.08,8.65-21.72,8.65ZM345.48,415.16c-.61-.59-1.34-.95-2.32-.95h-.12c-1.95.24-4.15,1.9-5.49,6.16-.49,1.66-.85,3.44-.98,5.21-.49,2.61-.24,5.57-.61,8.29-.12,2.84-.24,2.01-.24,3.91v1.3c0,1.3.12,2.37.12,3.67.12,4.03.12,4.15.61,7.94.24,2.96,2.44,12.2,6.22,12.2,5.98,0,6.59-7.94,6.83-13.27.37-4.15.61-3.79.61-8.77v-7.94c-.12-3.32-1.34-14.57-4.64-17.77Z"/><path class="cls-5" d="M382.7,482.7h-.61c-1.34-.12-2.32-.47-3.42-.95-.73-.24-1.1-1.07-1.1-1.78v-1.78c0-1.9-.12-3.79-.12-5.57,0-.95.12-1.78.12-2.84.37-22.16.73-34.72.98-56.87v-.71c0-2.25-.12-4.03-.12-5.92,0-2.37.12-5.21.37-9.48.12-.95.12-1.42,1.1-1.54.49,0,.98-.12,1.34-.12s.73.12,1.1.12c1.1.12,1.95.12,3.29.24,1.46.24,2.68.24,3.78.24h1.95c1.83,0,3.42.12,5.49.71.49.12.61.59.61,1.18v32.11c0,3.32-.37,5.33-.37,8.65,0,2.37-.37,5.09-.37,7.23,0,1.3.12,2.37.73,2.84,1.95,1.9,10.98,2.01,16.35,2.01h1.46c1.71,0,2.32,1.66,2.32,3.67,0,9.12.37,18.48.37,27.01-.12.59-.37.95-.98,1.07-.61.12-1.34.12-1.95.12-5.25,0-10.49.24-16.35.24h-3.05c-4.51,0-8.79.12-12.93.12Z"/><path class="cls-5" d="M479.59,484c-1.1.12-2.2.12-3.17.12-1.46-.12-2.93-.12-4.39-.12-17.57,0-22.94-12.32-24.4-28.44-.24-1.78-.37-3.67-.37-5.45v-3.44c0-11.61,1.46-22.39,3.9-31.64.73-2.84,2.07-5.69,3.54-8.29,4.39-7.58,10.01-11.26,21.48-12.08,1.34-.12,2.68-.24,4.03-.24,10.01,0,19.4,4.15,22.57,10.43,2.44,5.21,3.9,9.83,4.51,16.83,0,.71.12,1.42.12,2.13.37,5.09.49,10.9.49,16.59v1.78c0,13.39-.12,25.83-6.59,33.18-4.64,5.45-12.08,8.65-21.72,8.65ZM480.68,415.16c-.61-.59-1.34-.95-2.32-.95h-.12c-1.95.24-4.15,1.9-5.49,6.16-.49,1.66-.85,3.44-.98,5.21-.49,2.61-.24,5.57-.61,8.29-.12,2.84-.24,2.01-.24,3.91v1.3c0,1.3.12,2.37.12,3.67.12,4.03.12,4.15.61,7.94.24,2.96,2.44,12.2,6.22,12.2,5.98,0,6.59-7.94,6.83-13.27.37-4.15.61-3.79.61-8.77v-7.94c-.12-3.32-1.34-14.57-4.64-17.77Z"/><path class="cls-5" d="M556.46,419.9c-2.44,0-2.93.36-5.25.59-1.34.12-6.22.47-7.56.47-3.78,0-9.52.59-11.59.59-.73,0-.98,2.01-.98,4.74,0,3.2.37,7.35.37,9.83v.12c3.29-.12,5.49-.12,7.69-.12h5.86c2.81,0,2.68-.24,5.37-.24h1.83c1.83,0,3.54,1.07,3.54,3.08,0,1.66.24.36.24,7.46,0,1.54-.12,1.66-.12,3.44v.12c0,1.07.24,2.25.24,3.44,0,.59-.12,1.18-.24,1.66-.24.71-1.1.71-1.83.95-1.34.36-2.68.47-4.03.47-2.44,0-4.15.12-5.74.12-1.22,0-2.44-.12-3.9-.24l-6.83-.12c-.24,3.79-.24,2.84-.24,6.52,0,2.72-.24,6.16-.24,9,0,1.54,0,4.15.12,5.69.12.59.12,1.19.12,1.9v.83c0,.95-.37,1.3-1.46,1.54-4.39.36-11.59.59-15.62.59-.61,0-1.1-.12-1.59-.59s-.73-.83-.73-1.54c0-3.32-.24-6.4-.24-9.6,0-1.18,0-2.25.12-3.44,0-3.79.12-8.41.12-12.32,0-3.55-.12-6.99-.12-10.55,0-2.61.24-5.33.24-7.94,0-1.42-.24-2.96-.24-4.38-.12-2.37-.24-4.86-.24-7.46,0-5.92.37-12.09.61-17.3.12-2.49.37-4.98.37-7.46,0-.83-.24-1.3-.24-1.66s.24-.59.98-1.07c1.1-.59,2.07-.59,3.17-.59,3.17-.12,10.01-.24,13.18-.59.49,0,.85,0,1.22-.12,4.15-.24,8.3-.71,12.57-.71,1.95,0,2.32.12,4.39.12,1.1,0,2.68.12,4.15.12.98,0,1.83-.12,2.44-.24h.61c1.1,0,1.34,2.01,1.34,4.38,0,5.92-.24,13.86-.24,18.84,0,.83-.73,1.54-1.59,1.66Z"/><path class="cls-5" d="M606.73,419.9c-2.44,0-2.93.36-5.25.59-1.34.12-6.22.47-7.57.47-3.78,0-9.52.59-11.59.59-.73,0-.98,2.01-.98,4.74,0,3.2.37,7.35.37,9.83v.12c3.29-.12,5.49-.12,7.69-.12h5.86c2.81,0,2.68-.24,5.37-.24h1.83c1.83,0,3.54,1.07,3.54,3.08,0,1.66.24.36.24,7.46,0,1.54-.12,1.66-.12,3.44v.12c0,1.07.24,2.25.24,3.44,0,.59-.12,1.18-.24,1.66-.24.71-1.1.71-1.83.95-1.34.36-2.68.47-4.03.47-2.44,0-4.15.12-5.74.12-1.22,0-2.44-.12-3.9-.24l-6.83-.12c-.24,3.79-.24,2.84-.24,6.52,0,2.72-.24,6.16-.24,9,0,1.54,0,4.15.12,5.69.12.59.12,1.19.12,1.9v.83c0,.95-.37,1.3-1.46,1.54-4.39.36-11.59.59-15.62.59-.61,0-1.1-.12-1.59-.59-.49-.47-.73-.83-.73-1.54,0-3.32-.24-6.4-.24-9.6,0-1.18,0-2.25.12-3.44,0-3.79.12-8.41.12-12.32,0-3.55-.12-6.99-.12-10.55,0-2.61.24-5.33.24-7.94,0-1.42-.24-2.96-.24-4.38-.12-2.37-.24-4.86-.24-7.46,0-5.92.37-12.09.61-17.3.12-2.49.37-4.98.37-7.46,0-.83-.24-1.3-.24-1.66s.24-.59.98-1.07c1.1-.59,2.07-.59,3.17-.59,3.17-.12,10.01-.24,13.18-.59.49,0,.85,0,1.22-.12,4.15-.24,8.3-.71,12.57-.71,1.95,0,2.32.12,4.39.12,1.1,0,2.68.12,4.15.12.98,0,1.83-.12,2.44-.24h.61c1.1,0,1.34,2.01,1.34,4.38,0,5.92-.24,13.86-.24,18.84,0,.83-.73,1.54-1.59,1.66Z"/><path class="cls-5" d="M633.82,482.81h-1.83c-4.03,0-10.49.12-15.86.12-1.83,0-2.32-4.5-2.32-9.48,0-3.55.24-7.46.24-9.72v-1.18c-.12-1.07-.12-1.78-.12-2.61v-13.98c0-8.89.24-18.25.24-26.66v-2.25c0-2.61-.12-5.09-.12-7.7-.12-3.2-.12-6.4-.12-9.83v-1.66c.12-.47.24-.83.37-1.19.24-.24.61-.47.85-.47h.98c1.83,0,3.54-.24,5.37-.36,5.86,0,11.23.12,16.84.12.24,0,.37,0,.61.24.61.59.98,1.3.98,2.13v8.65c0,6.63,0,13.39-.24,19.67-.24,6.16-.37,10.66-.37,14.81,0,3.2.12,6.28.12,9.72s-.12,7.46-.24,12.56v12.68c0,.12.12,4.27.12,4.38,0,.47-.24.95-.61,1.3-.49.47-2.93.71-4.88.71Z"/><path class="cls-5" d="M662.26,484.59c-3.42-.36-6.22-1.42-8.66-3.2-4.76-3.55-7.57-9.6-8.42-16-.49-2.84-.73-5.81-.98-8.89-.24-2.13-.37-4.38-.49-6.52-.12-3.67-.24-7.11-.37-10.54v-2.61c0-4.74.24-9.36.85-13.74.61-5.21,1.83-10.07,3.66-14.22,1.71-4.03,4.15-7.46,7.32-9.95,2.56-2.01,5.73-3.44,9.4-4.15,2.68-.47,5.37-.71,8.05-.71,2.93,0,5.86.36,8.66.83,1.22.24,1.95.36,3.17.83,2.56.95,4.03,1.3,6.35,2.61,1.1.59,1.83,1.18,2.56,2.25,1.95,2.73,3.29,4.74,4.15,7.46.12.36.24.71.24,1.07.12,1.18.24,2.37.24,3.67v3.2c0,.71,0,1.3-.12,2.01,0,.83-.12,1.78-.12,2.61l-.24,3.44c-.24,2.01-.49,4.38-.73,6.4-.12.71-.12,1.42-.12,2.13s-.12.95-.98,1.07c-.49.24-.98.36-1.46.36-5.49.47-9.64.71-15.01.71-2.68,0-5.61-.36-5.61-2.25,0-.95.12-1.3.12-2.13v-1.19c.12-4.62.98-6.99.98-11.26v-1.18c0-.47,0-.83-.24-1.42-.37-1.18-1.22-1.9-2.44-1.9-.24,0-.61,0-.85.12-.73.24-1.34.59-2.08.95-.98.71-1.71,1.54-2.44,2.61-1.46,2.13-2.93,4.86-3.17,7.46-.49,2.96-.73,6.63-.73,9.6v3.44c0,6.04.37,15.88,4.51,15.88,4.76,0,5.37-3.08,5.49-3.67.24-1.42.73-5.57.73-6.87v-.95c.12-.83.73-1.3,1.59-1.3,6.96,0,14.52.12,20.74.59,1.1.24,1.59.83,1.83,1.9.12.71.24,1.42.24,2.13,0,.36-.12.59-.12.95-.12,1.54-.12,3.2-.12,4.74-.12,1.18-.24,2.37-.24,3.55-.12,1.54-.37,3.08-.37,4.62,0,1.9-.24,3.91-.61,5.69,0,.36-.12.71-.12,1.07,0,5.09-3.91,10.43-6.96,12.92-.37.24-.61.59-.98.83-2.2,1.9-4.88,2.84-7.57,3.67-3.78,1.07-5.86,1.42-9.64,1.78h-.61l-3.42-.12c-1.71-.12-3.29-.24-4.88-.36Z"/><path class="cls-5" d="M723.51,482.81h-1.83c-4.03,0-10.49.12-15.86.12-1.83,0-2.32-4.5-2.32-9.48,0-3.55.24-7.46.24-9.72v-1.18c-.12-1.07-.12-1.78-.12-2.61v-13.98c0-8.89.24-18.25.24-26.66v-2.25c0-2.61-.12-5.09-.12-7.7-.12-3.2-.12-6.4-.12-9.83v-1.66c.12-.47.24-.83.37-1.19.24-.24.61-.47.85-.47h.98c1.83,0,3.54-.24,5.37-.36,5.86,0,11.23.12,16.84.12.24,0,.37,0,.61.24.61.59.98,1.3.98,2.13v8.65c0,6.63,0,13.39-.24,19.67-.24,6.16-.37,10.66-.37,14.81,0,3.2.12,6.28.12,9.72s-.12,7.46-.24,12.56v12.68c0,.12.12,4.27.12,4.38,0,.47-.24.95-.61,1.3-.49.47-2.93.71-4.88.71Z"/><path class="cls-5" d="M798.68,469.78c.49,2.01.61,2.37,1.1,4.27.49,1.78,1.1,3.2,1.46,4.74.12.47.12.83.12,1.18,0,.95-.61,1.42-1.46,1.66-1.34.47-2.44.59-3.54.59-1.22,0-2.44-.12-3.9-.12h-.85c-3.78.24-6.59.47-10.13.47-.37,0-.73-.12-.98-.24-.37-.24-.61-.95-.73-1.66-.12-.24-.12-.47-.24-.83,0-.12-.12-.36-.12-.47-2.07-7.82-2.2-11.14-3.66-18.25-1.46-7.11-.24-2.25-1.46-6.52-.12-.36-.37-.59-.61-.83-.49,0-2.2,0-2.81-.12-1.22,0-2.32-.12-3.66-.12h-1.22c-.85,0-1.46-.12-2.32-.12-.61,0-1.34.12-2.44.12-.49.47-.98.24-1.22,1.07-.73,3.44-.85,5.33-1.46,8.77-.37,2.73-.61,4.62-.98,6.87-.24,2.73-.49,4.86-.85,7.7-.12.71-.24,1.42-.37,2.13-.12.47-.37.95-.61,1.3-.37.24-.73.59-1.1.59-1.1.36-2.56.47-4.03.47s-3.17-.12-4.51-.12h-2.81c-1.1,0-2.32.12-3.66.12-1.95,0-3.78-.24-4.76-.95-.12-.12-.12-.24-.12-.36,0-.36.12-.71.12-.95.12-.47.12-.95.24-1.42.49-2.25.98-4.03,1.22-5.81,0-.36.12-1.07.37-1.3.73-6.87,2.07-12.44,3.66-20.38,2.81-14.46,5-24.88,7.44-36.85.98-4.86,2.68-9.83,3.29-15.52.12-1.19.49-1.07,1.22-1.42h1.1c1.46-.36,2.56-.47,4.15-.83.73,0,1.59-.24,2.44-.36.61,0,6.96-.12,10.74-.12h2.44c2.32.24,4.52.71,6.71.95.37.12.73.24.98.59.37.59.73,1.19.85,1.78.85,3.08,1.34,6.16,2.07,9.24.37,2.13.85,4.38,1.46,6.4,2.2,6.28,2.93,12.2,4.51,19.08.73,3.32,1.34,6.87,2.07,10.19.98,4.74,2.56,8.29,3.78,13.62.37,2.01.73,3.55,1.34,5.92.61,2.25,1.22,3.79,1.71,5.81ZM770.86,438.03c0-.12.12-.12.12-.24,0-.24.12-.36.12-.59,0-2.37-1.22-6.04-2.07-11.02-.49-3.55-.85-7.11-1.59-11.61-.12-.47-.24-.59-.49-.59s-.37.12-.61.12c-.12,0-1.1.12-1.34,1.3-1.83,8.29-2.68,18.72-2.68,21.56v.59c.12.12.12.24.12.36,0,.59,1.59.71,2.81.71h1.34c1.34-.12,3.42-.36,3.42-.36.24-.12.85,0,.85-.24Z"/><path class="cls-5" d="M809.66,482.7h-.61c-1.34-.12-2.32-.47-3.42-.95-.73-.24-1.1-1.07-1.1-1.78v-1.78c0-1.9-.12-3.79-.12-5.57,0-.95.12-1.78.12-2.84.37-22.16.73-34.72.98-56.87v-.71c0-2.25-.12-4.03-.12-5.92,0-2.37.12-5.21.37-9.48.12-.95.12-1.42,1.1-1.54.49,0,.98-.12,1.34-.12s.73.12,1.1.12c1.1.12,1.95.12,3.29.24,1.46.24,2.68.24,3.78.24h1.95c1.83,0,3.42.12,5.49.71.49.12.61.59.61,1.18v32.11c0,3.32-.37,5.33-.37,8.65,0,2.37-.37,5.09-.37,7.23,0,1.3.12,2.37.73,2.84,1.95,1.9,10.98,2.01,16.35,2.01h1.46c1.71,0,2.32,1.66,2.32,3.67,0,9.12.37,18.48.37,27.01-.12.59-.37.95-.98,1.07-.61.12-1.34.12-1.95.12-5.25,0-10.49.24-16.35.24h-3.05c-4.51,0-8.79.12-12.93.12Z"/><path class="cls-19" d="M60.92,388.1h4.39c.85,0,1.71,0,2.44-.12,2.68,0,5.25-.12,7.93-.12h.24c.61,0,.98.36,1.22.83,0,.12,0,.24.12.36.12.24.24.47.24.71,0,.36-.12.71-.37,1.07-1.22,2.01-2.2,4.15-3.05,6.4-1.46,3.79-3.29,7.23-4.76,10.9-.73,1.78-1.46,3.44-2.2,4.98-2.07,3.2-3.78,6.04-5.37,9.72-.24.36-.37.83-.61,1.18-1.59,2.49-2.56,5.09-3.9,7.58-.73,1.18-1.22,2.37-1.71,3.55-1.1,2.49-2.2,4.86-3.29,7.35l-2.2,4.98c-2.32,4.38-3.9,8.89-6.22,13.27-.73,2.01-1.71,4.26-2.56,6.28-.73,1.66-1.1,3.67-3.05,4.74-1.46.83-2.68,1.07-3.9,1.07-.98,0-1.95-.24-3.17-.24-1.46,0-2.93-.12-4.39-.12-2.07,0-4.03.36-6.1.36l-2.44-.24c-1.22-.24-1.95-1.07-1.95-2.13,0-.59.12-1.18.49-1.54,1.1-1.42,1.34-3.44,2.2-4.86,0-.12.12-.24.12-.36,1.1-2.73,2.32-5.57,3.66-8.18,2.32-4.5,4.52-9,6.71-13.63,2.81-5.45,5.12-10.9,7.93-16.35.49-1.3,1.1-2.49,1.83-3.67,1.71-2.61,2.81-5.45,4.15-8.18.49-1.18,1.22-2.25,1.83-3.32.73-1.54,1.46-3.2,2.2-4.86,1.1-2.73,2.07-5.69,3.54-8.41l1.83-2.84c1.1-1.9,2.32-3.79,3.42-5.69.24-.36.73-.59,1.1-.59h.24c1.1,0,2.32.12,3.42.12Z"/><path class="cls-21" d="M126.45,474c-1.1.12-2.2.12-3.17.12-1.46-.12-2.93-.12-4.39-.12-17.57,0-22.94-12.32-24.4-28.44-.24-1.78-.37-3.67-.37-5.45v-3.44c0-11.61,1.46-22.39,3.9-31.64.73-2.84,2.07-5.69,3.54-8.29,4.39-7.58,10.01-11.26,21.48-12.08,1.34-.12,2.68-.24,4.03-.24,10.01,0,19.4,4.15,22.57,10.43,2.44,5.21,3.9,9.83,4.51,16.83,0,.71.12,1.42.12,2.13.37,5.09.49,10.9.49,16.59v1.78c0,13.39-.12,25.83-6.59,33.18-4.64,5.45-12.08,8.65-21.72,8.65ZM127.55,405.16c-.61-.59-1.34-.95-2.32-.95h-.12c-1.95.24-4.15,1.9-5.49,6.16-.49,1.66-.85,3.44-.98,5.21-.49,2.61-.24,5.57-.61,8.29-.12,2.84-.24,2.01-.24,3.91v1.3c0,1.3.12,2.37.12,3.67.12,4.03.12,4.15.61,7.94.24,2.96,2.44,12.2,6.22,12.2,5.98,0,6.59-7.94,6.83-13.27.37-4.15.61-3.79.61-8.77v-7.94c-.12-3.32-1.34-14.57-4.64-17.77Z"/><path class="cls-20" d="M212.85,472.93h-1.71c-2.07,0-10.37-.12-13.54-.12-.98,0-1.59-.24-1.95-.95-.49-1.42-1.46-5.69-2.07-7.23-1.71-3.79-2.93-7.94-4.64-11.73-.24-.47-.49-.95-.49-1.42-2.2-4.86-3.29-10.07-5.12-15.28-2.44-7.23-1.83-6.99-2.2-7.46h-.24c-.24,0-.37,1.18-.37,2.84s.12,3.67.12,4.98c-.12,6.04-.37,9.48-.49,15.52v7.94c0,2.13-.12,4.38-.12,6.63-.12,1.66.24,6.16-1.46,6.16h-.37c-2.07,0-3.54-.12-4.76-.12-1.71,0-2.93.12-4.15.12-1.34,0-2.81-.12-5.25-.24-.24,0-.49-.12-.85-.12h-.49c-.98,0-2.07-.83-2.07-1.78v-12.08c0-23.46.24-38.75.49-61.73v-3.79c0-1.18,0-2.25.24-3.44v-1.78c0-.83.24-1.19.98-1.54l1.95-.36c1.46-.12,3.17-.24,4.64-.24,3.17,0,5.74.83,8.54.83,1.22,0,1.83.83,2.32,1.9,8.91,20.97,12.81,33.18,21.48,54.27.12.12.12.24.12.24.12,0,.12-.12.12-.24,0-.36-.24-1.42-.24-2.25,0-11.26-.24-21.09-.24-32.46,0-4.15-.12-8.18-.12-12.2,0-2.37.24-4.86.24-7.23,0-.71.37-1.54,1.22-1.54,3.29,0,5.25.12,6.22.12h7.57c.85.12,1.22.71,1.22,1.42v82.35c0,1.78-2.44,2.01-4.52,2.01Z"/><path class="cls-18" d="M282.89,411.56c-1.46,0-2.93.24-4.39.83-1.46.71-2.44,1.9-2.81,3.55-.12.47-.12.95-.12,1.42,0,1.66.73,3.08,1.83,4.38.85.95,1.95,1.9,2.93,2.84,1.71,1.9,5.98,3.2,7.81,4.86,1.95,1.66,3.66,3.44,5.49,5.21,1.83,1.9,2.68,4.27,3.29,6.64.49,1.9.73,3.67.73,5.57,0,1.18-.12,2.49-.37,3.67-.24,2.96-1.59,5.45-2.56,7.94-.73,1.54-1.83,2.84-2.68,4.38-.24.59-.85,1.07-1.34,1.66-1.22,1.3-2.56,2.49-4.15,3.44-.12.12-.37.24-.61.36-4.64,2.13-9.4,3.67-16.11,4.26-1.46.12-3.78.24-5.49.24h-.73c-3.05,0-8.05-.36-10.37-.36-.85,0-1.59-.36-2.32-.83-.73-.47-.98-1.07-.98-2.01.12-3.44.24-6.16.24-9.12,0-3.91.24-7.46.24-11.02,0-1.78-.12-3.67-.24-5.57v-.47c0-.83.24-1.07,1.1-1.3.49-.12.98-.12,1.59-.12,2.07,0,4.15.12,6.1.12,1.59,0,3.17-.12,4.39-.47,2.93-.83,5.61-2.13,7.57-4.5.98-1.18,1.46-2.61,1.46-3.91,0-1.42-.61-2.84-1.71-3.79-.85-.95-1.59-1.9-2.44-2.84-1.34-1.3-3.42-2.49-5-3.55-1.22-.71-2.32-1.54-3.29-2.37-1.46-1.3-2.93-2.73-4.27-4.15-1.83-2.01-2.93-4.03-4.27-6.87-.85-2.01-1.1-3.32-1.22-5.45v-.71c0-5.69,3.78-9.12,7.2-11.61,4.39-3.32,9.76-4.38,16.96-5.09,1.71-.24,3.54-.24,5.25-.24,5,0,10.74.71,15.62.71,1.46,0,2.07.47,2.32,1.78v6.99c0,1.3,0,2.25.12,4.38.12,1.18.12,1.78.12,2.96,0,2.13-.12,3.55-.12,5.57v1.18c-.24,1.07-1.1,1.78-2.2,1.78-3.78,0-7.93-.36-11.47-.36h-1.1Z"/><path class="cls-8" d="M334.38,474c-1.1.12-2.2.12-3.17.12-1.46-.12-2.93-.12-4.39-.12-17.57,0-22.94-12.32-24.4-28.44-.24-1.78-.37-3.67-.37-5.45v-3.44c0-11.61,1.46-22.39,3.9-31.64.73-2.84,2.07-5.69,3.54-8.29,4.39-7.58,10.01-11.26,21.48-12.08,1.34-.12,2.68-.24,4.03-.24,10.01,0,19.4,4.15,22.57,10.43,2.44,5.21,3.9,9.83,4.51,16.83,0,.71.12,1.42.12,2.13.37,5.09.49,10.9.49,16.59v1.78c0,13.39-.12,25.83-6.59,33.18-4.64,5.45-12.08,8.65-21.72,8.65ZM335.48,405.16c-.61-.59-1.34-.95-2.32-.95h-.12c-1.95.24-4.15,1.9-5.49,6.16-.49,1.66-.85,3.44-.98,5.21-.49,2.61-.24,5.57-.61,8.29-.12,2.84-.24,2.01-.24,3.91v1.3c0,1.3.12,2.37.12,3.67.12,4.03.12,4.15.61,7.94.24,2.96,2.44,12.2,6.22,12.2,5.98,0,6.59-7.94,6.83-13.27.37-4.15.61-3.79.61-8.77v-7.94c-.12-3.32-1.34-14.57-4.64-17.77Z"/><path class="cls-10" d="M372.7,472.7h-.61c-1.34-.12-2.32-.47-3.42-.95-.73-.24-1.1-1.07-1.1-1.78v-1.78c0-1.9-.12-3.79-.12-5.57,0-.95.12-1.78.12-2.84.37-22.16.73-34.72.98-56.87v-.71c0-2.25-.12-4.03-.12-5.92,0-2.37.12-5.21.37-9.48.12-.95.12-1.42,1.1-1.54.49,0,.98-.12,1.34-.12s.73.12,1.1.12c1.1.12,1.95.12,3.29.24,1.46.24,2.68.24,3.78.24h1.95c1.83,0,3.42.12,5.49.71.49.12.61.59.61,1.18v32.11c0,3.32-.37,5.33-.37,8.65,0,2.37-.37,5.09-.37,7.23,0,1.3.12,2.37.73,2.84,1.95,1.9,10.98,2.01,16.35,2.01h1.46c1.71,0,2.32,1.66,2.32,3.67,0,9.12.37,18.48.37,27.01-.12.59-.37.95-.98,1.07-.61.12-1.34.12-1.95.12-5.25,0-10.49.24-16.35.24h-3.05c-4.51,0-8.79.12-12.93.12Z"/><path class="cls-11" d="M469.59,474c-1.1.12-2.2.12-3.17.12-1.46-.12-2.93-.12-4.39-.12-17.57,0-22.94-12.32-24.4-28.44-.24-1.78-.37-3.67-.37-5.45v-3.44c0-11.61,1.46-22.39,3.9-31.64.73-2.84,2.07-5.69,3.54-8.29,4.39-7.58,10.01-11.26,21.48-12.08,1.34-.12,2.68-.24,4.03-.24,10.01,0,19.4,4.15,22.57,10.43,2.44,5.21,3.9,9.83,4.51,16.83,0,.71.12,1.42.12,2.13.37,5.09.49,10.9.49,16.59v1.78c0,13.39-.12,25.83-6.59,33.18-4.64,5.45-12.08,8.65-21.72,8.65ZM470.68,405.16c-.61-.59-1.34-.95-2.32-.95h-.12c-1.95.24-4.15,1.9-5.49,6.16-.49,1.66-.85,3.44-.98,5.21-.49,2.61-.24,5.57-.61,8.29-.12,2.84-.24,2.01-.24,3.91v1.3c0,1.3.12,2.37.12,3.67.12,4.03.12,4.15.61,7.94.24,2.96,2.44,12.2,6.22,12.2,5.98,0,6.59-7.94,6.83-13.27.37-4.15.61-3.79.61-8.77v-7.94c-.12-3.32-1.34-14.57-4.64-17.77Z"/><path class="cls-17" d="M546.46,409.9c-2.44,0-2.93.36-5.25.59-1.34.12-6.22.47-7.56.47-3.78,0-9.52.59-11.59.59-.73,0-.98,2.01-.98,4.74,0,3.2.37,7.35.37,9.83v.12c3.29-.12,5.49-.12,7.69-.12h5.86c2.81,0,2.68-.24,5.37-.24h1.83c1.83,0,3.54,1.07,3.54,3.08,0,1.66.24.36.24,7.46,0,1.54-.12,1.66-.12,3.44v.12c0,1.07.24,2.25.24,3.44,0,.59-.12,1.18-.24,1.66-.24.71-1.1.71-1.83.95-1.34.36-2.68.47-4.03.47-2.44,0-4.15.12-5.74.12-1.22,0-2.44-.12-3.9-.24l-6.83-.12c-.24,3.79-.24,2.84-.24,6.52,0,2.72-.24,6.16-.24,9,0,1.54,0,4.15.12,5.69.12.59.12,1.19.12,1.9v.83c0,.95-.37,1.3-1.46,1.54-4.39.36-11.59.59-15.62.59-.61,0-1.1-.12-1.59-.59s-.73-.83-.73-1.54c0-3.32-.24-6.4-.24-9.6,0-1.18,0-2.25.12-3.44,0-3.79.12-8.41.12-12.32,0-3.55-.12-6.99-.12-10.55,0-2.61.24-5.33.24-7.94,0-1.42-.24-2.96-.24-4.38-.12-2.37-.24-4.86-.24-7.46,0-5.92.37-12.09.61-17.3.12-2.49.37-4.98.37-7.46,0-.83-.24-1.3-.24-1.66s.24-.59.98-1.07c1.1-.59,2.07-.59,3.17-.59,3.17-.12,10.01-.24,13.18-.59.49,0,.85,0,1.22-.12,4.15-.24,8.3-.71,12.57-.71,1.95,0,2.32.12,4.39.12,1.1,0,2.68.12,4.15.12.98,0,1.83-.12,2.44-.24h.61c1.1,0,1.34,2.01,1.34,4.38,0,5.92-.24,13.86-.24,18.84,0,.83-.73,1.54-1.59,1.66Z"/><path class="cls-14" d="M596.73,409.9c-2.44,0-2.93.36-5.25.59-1.34.12-6.22.47-7.57.47-3.78,0-9.52.59-11.59.59-.73,0-.98,2.01-.98,4.74,0,3.2.37,7.35.37,9.83v.12c3.29-.12,5.49-.12,7.69-.12h5.86c2.81,0,2.68-.24,5.37-.24h1.83c1.83,0,3.54,1.07,3.54,3.08,0,1.66.24.36.24,7.46,0,1.54-.12,1.66-.12,3.44v.12c0,1.07.24,2.25.24,3.44,0,.59-.12,1.18-.24,1.66-.24.71-1.1.71-1.83.95-1.34.36-2.68.47-4.03.47-2.44,0-4.15.12-5.74.12-1.22,0-2.44-.12-3.9-.24l-6.83-.12c-.24,3.79-.24,2.84-.24,6.52,0,2.72-.24,6.16-.24,9,0,1.54,0,4.15.12,5.69.12.59.12,1.19.12,1.9v.83c0,.95-.37,1.3-1.46,1.54-4.39.36-11.59.59-15.62.59-.61,0-1.1-.12-1.59-.59-.49-.47-.73-.83-.73-1.54,0-3.32-.24-6.4-.24-9.6,0-1.18,0-2.25.12-3.44,0-3.79.12-8.41.12-12.32,0-3.55-.12-6.99-.12-10.55,0-2.61.24-5.33.24-7.94,0-1.42-.24-2.96-.24-4.38-.12-2.37-.24-4.86-.24-7.46,0-5.92.37-12.09.61-17.3.12-2.49.37-4.98.37-7.46,0-.83-.24-1.3-.24-1.66s.24-.59.98-1.07c1.1-.59,2.07-.59,3.17-.59,3.17-.12,10.01-.24,13.18-.59.49,0,.85,0,1.22-.12,4.15-.24,8.3-.71,12.57-.71,1.95,0,2.32.12,4.39.12,1.1,0,2.68.12,4.15.12.98,0,1.83-.12,2.44-.24h.61c1.1,0,1.34,2.01,1.34,4.38,0,5.92-.24,13.86-.24,18.84,0,.83-.73,1.54-1.59,1.66Z"/><path class="cls-9" d="M623.82,472.81h-1.83c-4.03,0-10.49.12-15.86.12-1.83,0-2.32-4.5-2.32-9.48,0-3.55.24-7.46.24-9.72v-1.18c-.12-1.07-.12-1.78-.12-2.61v-13.98c0-8.89.24-18.25.24-26.66v-2.25c0-2.61-.12-5.09-.12-7.7-.12-3.2-.12-6.4-.12-9.83v-1.66c.12-.47.24-.83.37-1.19.24-.24.61-.47.85-.47h.98c1.83,0,3.54-.24,5.37-.36,5.86,0,11.23.12,16.84.12.24,0,.37,0,.61.24.61.59.98,1.3.98,2.13v8.65c0,6.63,0,13.39-.24,19.67-.24,6.16-.37,10.66-.37,14.81,0,3.2.12,6.28.12,9.72s-.12,7.46-.24,12.56v12.68c0,.12.12,4.27.12,4.38,0,.47-.24.95-.61,1.3-.49.47-2.93.71-4.88.71Z"/><path class="cls-15" d="M652.26,474.59c-3.42-.36-6.22-1.42-8.66-3.2-4.76-3.55-7.57-9.6-8.42-16-.49-2.84-.73-5.81-.98-8.89-.24-2.13-.37-4.38-.49-6.52-.12-3.67-.24-7.11-.37-10.54v-2.61c0-4.74.24-9.36.85-13.74.61-5.21,1.83-10.07,3.66-14.22,1.71-4.03,4.15-7.46,7.32-9.95,2.56-2.01,5.73-3.44,9.4-4.15,2.68-.47,5.37-.71,8.05-.71,2.93,0,5.86.36,8.66.83,1.22.24,1.95.36,3.17.83,2.56.95,4.03,1.3,6.35,2.61,1.1.59,1.83,1.18,2.56,2.25,1.95,2.73,3.29,4.74,4.15,7.46.12.36.24.71.24,1.07.12,1.18.24,2.37.24,3.67v3.2c0,.71,0,1.3-.12,2.01,0,.83-.12,1.78-.12,2.61l-.24,3.44c-.24,2.01-.49,4.38-.73,6.4-.12.71-.12,1.42-.12,2.13s-.12.95-.98,1.07c-.49.24-.98.36-1.46.36-5.49.47-9.64.71-15.01.71-2.68,0-5.61-.36-5.61-2.25,0-.95.12-1.3.12-2.13v-1.19c.12-4.62.98-6.99.98-11.26v-1.18c0-.47,0-.83-.24-1.42-.37-1.18-1.22-1.9-2.44-1.9-.24,0-.61,0-.85.12-.73.24-1.34.59-2.08.95-.98.71-1.71,1.54-2.44,2.61-1.46,2.13-2.93,4.86-3.17,7.46-.49,2.96-.73,6.63-.73,9.6v3.44c0,6.04.37,15.88,4.51,15.88,4.76,0,5.37-3.08,5.49-3.67.24-1.42.73-5.57.73-6.87v-.95c.12-.83.73-1.3,1.59-1.3,6.96,0,14.52.12,20.74.59,1.1.24,1.59.83,1.83,1.9.12.71.24,1.42.24,2.13,0,.36-.12.59-.12.95-.12,1.54-.12,3.2-.12,4.74-.12,1.18-.24,2.37-.24,3.55-.12,1.54-.37,3.08-.37,4.62,0,1.9-.24,3.91-.61,5.69,0,.36-.12.71-.12,1.07,0,5.09-3.91,10.43-6.96,12.92-.37.24-.61.59-.98.83-2.2,1.9-4.88,2.84-7.57,3.67-3.78,1.07-5.86,1.42-9.64,1.78h-.61l-3.42-.12c-1.71-.12-3.29-.24-4.88-.36Z"/><path class="cls-12" d="M713.51,472.81h-1.83c-4.03,0-10.49.12-15.86.12-1.83,0-2.32-4.5-2.32-9.48,0-3.55.24-7.46.24-9.72v-1.18c-.12-1.07-.12-1.78-.12-2.61v-13.98c0-8.89.24-18.25.24-26.66v-2.25c0-2.61-.12-5.09-.12-7.7-.12-3.2-.12-6.4-.12-9.83v-1.66c.12-.47.24-.83.37-1.19.24-.24.61-.47.85-.47h.98c1.83,0,3.54-.24,5.37-.36,5.86,0,11.23.12,16.84.12.24,0,.37,0,.61.24.61.59.98,1.3.98,2.13v8.65c0,6.63,0,13.39-.24,19.67-.24,6.16-.37,10.66-.37,14.81,0,3.2.12,6.28.12,9.72s-.12,7.46-.24,12.56v12.68c0,.12.12,4.27.12,4.38,0,.47-.24.95-.61,1.3-.49.47-2.93.71-4.88.71Z"/><path class="cls-16" d="M788.68,459.78c.49,2.01.61,2.37,1.1,4.27.49,1.78,1.1,3.2,1.46,4.74.12.47.12.83.12,1.18,0,.95-.61,1.42-1.46,1.66-1.34.47-2.44.59-3.54.59-1.22,0-2.44-.12-3.9-.12h-.85c-3.78.24-6.59.47-10.13.47-.37,0-.73-.12-.98-.24-.37-.24-.61-.95-.73-1.66-.12-.24-.12-.47-.24-.83,0-.12-.12-.36-.12-.47-2.07-7.82-2.2-11.14-3.66-18.25-1.46-7.11-.24-2.25-1.46-6.52-.12-.36-.37-.59-.61-.83-.49,0-2.2,0-2.81-.12-1.22,0-2.32-.12-3.66-.12h-1.22c-.85,0-1.46-.12-2.32-.12-.61,0-1.34.12-2.44.12-.49.47-.98.24-1.22,1.07-.73,3.44-.85,5.33-1.46,8.77-.37,2.73-.61,4.62-.98,6.87-.24,2.73-.49,4.86-.85,7.7-.12.71-.24,1.42-.37,2.13-.12.47-.37.95-.61,1.3-.37.24-.73.59-1.1.59-1.1.36-2.56.47-4.03.47s-3.17-.12-4.51-.12h-2.81c-1.1,0-2.32.12-3.66.12-1.95,0-3.78-.24-4.76-.95-.12-.12-.12-.24-.12-.36,0-.36.12-.71.12-.95.12-.47.12-.95.24-1.42.49-2.25.98-4.03,1.22-5.81,0-.36.12-1.07.37-1.3.73-6.87,2.07-12.44,3.66-20.38,2.81-14.46,5-24.88,7.44-36.85.98-4.86,2.68-9.83,3.29-15.52.12-1.19.49-1.07,1.22-1.42h1.1c1.46-.36,2.56-.47,4.15-.83.73,0,1.59-.24,2.44-.36.61,0,6.96-.12,10.74-.12h2.44c2.32.24,4.52.71,6.71.95.37.12.73.24.98.59.37.59.73,1.19.85,1.78.85,3.08,1.34,6.16,2.07,9.24.37,2.13.85,4.38,1.46,6.4,2.2,6.28,2.93,12.2,4.51,19.08.73,3.32,1.34,6.87,2.07,10.19.98,4.74,2.56,8.29,3.78,13.62.37,2.01.73,3.55,1.34,5.92.61,2.25,1.22,3.79,1.71,5.81ZM760.86,428.03c0-.12.12-.12.12-.24,0-.24.12-.36.12-.59,0-2.37-1.22-6.04-2.07-11.02-.49-3.55-.85-7.11-1.59-11.61-.12-.47-.24-.59-.49-.59s-.37.12-.61.12c-.12,0-1.1.12-1.34,1.3-1.83,8.29-2.68,18.72-2.68,21.56v.59c.12.12.12.24.12.36,0,.59,1.59.71,2.81.71h1.34c1.34-.12,3.42-.36,3.42-.36.24-.12.85,0,.85-.24Z"/><path class="cls-13" d="M799.66,472.7h-.61c-1.34-.12-2.32-.47-3.42-.95-.73-.24-1.1-1.07-1.1-1.78v-1.78c0-1.9-.12-3.79-.12-5.57,0-.95.12-1.78.12-2.84.37-22.16.73-34.72.98-56.87v-.71c0-2.25-.12-4.03-.12-5.92,0-2.37.12-5.21.37-9.48.12-.95.12-1.42,1.1-1.54.49,0,.98-.12,1.34-.12s.73.12,1.1.12c1.1.12,1.95.12,3.29.24,1.46.24,2.68.24,3.78.24h1.95c1.83,0,3.42.12,5.49.71.49.12.61.59.61,1.18v32.11c0,3.32-.37,5.33-.37,8.65,0,2.37-.37,5.09-.37,7.23,0,1.3.12,2.37.73,2.84,1.95,1.9,10.98,2.01,16.35,2.01h1.46c1.71,0,2.32,1.66,2.32,3.67,0,9.12.37,18.48.37,27.01-.12.59-.37.95-.98,1.07-.61.12-1.34.12-1.95.12-5.25,0-10.49.24-16.35.24h-3.05c-4.51,0-8.79.12-12.93.12Z"/></svg>